#N canvas 800 167 708 690 10;
#X obj 249 17 inlet alpha;
#X obj 293 67 inlet beta;
#X obj 337 117 inlet a;
#X obj 381 165 inlet b;
#X obj 425 216 inlet dt;
#X obj 79 454 s \$0-out1;
#X obj 196 454 s \$0-out2;
#X obj 313 454 s \$0-out3;
#X obj 430 454 s \$0-out4;
#X obj 74 174 r \$0-out1;
#X obj 117 194 r \$0-out2;
#X obj 161 214 r \$0-out3;
#X obj 205 234 r \$0-out4;
#X msg 259 39 15.49;
#X msg 304 91 25.96;
#X msg 345 138 -1.14286;
#X msg 388 186 -0.714286;
#X obj 450 38 loadbang;
#X msg 103 379 1.1646;
#X msg 219 379 -0.097335;
#X msg 329 378 -0.90556;
#X obj 59 423 f;
#X obj 176 423 f;
#X obj 293 423 f;
#X obj 410 423 f;
#X obj 470 382 t b b b b;
#X obj 470 313 loadbang;
#X obj 531 337 bng 15 250 50 0 empty empty empty 17 7 0 10 -262144
-1 -1;
#X obj 470 336 delay 10;
#X obj 470 360 metro 10;
#X obj 219 356 loadbang;
#X obj 59 484 outlet;
#X obj 176 484 outlet;
#X obj 293 484 outlet;
#X obj 410 484 outlet;
#X msg 433 237 0.01;
#X obj 74 270 expr $f1 + 1 * ($f5 * ($f2 - $f1 - $f4)) * $f9 \; $f2
+ 1 * ($f1 - $f2 + $f3) * $f9 \; $f3 + 1 * (-$f6 * $f2 - 0 * $f3) *
$f9 \; if ($f1 >= 1 \, $f8 * $f1 + ($f7 - $f8) \, if ($f1 >= -1 \,
$f7 * $f1 \, $f8 * $f1 - ($f7 - $f8)));
#X connect 0 0 36 4;
#X connect 1 0 36 5;
#X connect 2 0 36 6;
#X connect 3 0 36 7;
#X connect 4 0 36 8;
#X connect 9 0 36 0;
#X connect 10 0 36 1;
#X connect 11 0 36 2;
#X connect 12 0 36 3;
#X connect 13 0 36 4;
#X connect 14 0 36 5;
#X connect 15 0 36 6;
#X connect 16 0 36 7;
#X connect 17 0 13 0;
#X connect 17 0 14 0;
#X connect 17 0 15 0;
#X connect 17 0 16 0;
#X connect 17 0 35 0;
#X connect 18 0 21 1;
#X connect 19 0 22 1;
#X connect 20 0 23 1;
#X connect 21 0 5 0;
#X connect 21 0 31 0;
#X connect 22 0 6 0;
#X connect 22 0 32 0;
#X connect 23 0 7 0;
#X connect 23 0 33 0;
#X connect 24 0 8 0;
#X connect 24 0 34 0;
#X connect 25 0 21 0;
#X connect 25 1 22 0;
#X connect 25 2 23 0;
#X connect 25 3 24 0;
#X connect 26 0 28 0;
#X connect 27 0 29 0;
#X connect 28 0 29 0;
#X connect 29 0 25 0;
#X connect 30 0 19 0;
#X connect 30 0 20 0;
#X connect 30 0 18 0;
#X connect 35 0 36 8;
#X connect 36 0 21 1;
#X connect 36 1 22 1;
#X connect 36 2 23 1;
#X connect 36 3 24 1;
