#N canvas 252 391 450 300 10;
#X obj 48 20 loadbang;
#X obj 48 70 metro;
#X obj 105 20 inlet rate;
#X obj 48 100 f \$1;
#X msg 48 125 0 \, 1 \$1 0;
#X obj 48 150 vline~;
#X obj 48 180 outlet~;
#X obj 105 47 t f f;
#X obj 204 123 s metroOut;
#X connect 0 0 1 0;
#X connect 1 0 3 0;
#X connect 1 0 8 0;
#X connect 2 0 7 0;
#X connect 3 0 4 0;
#X connect 4 0 5 0;
#X connect 5 0 6 0;
#X connect 7 0 1 1;
#X connect 7 1 3 1;
