#N canvas 1 77 454 172 10;
#N canvas 0 0 450 300 (subpatch) 0;
#X array dynWindow 4096 float 2;
#X coords 0 1 4096 -1 200 140 1 0 0;
#X restore -61 -45 graph;
#X obj 174 -43 inlet~ forWindow;
#X obj 174 -12 *~ 0.1;
#X obj 283 -43 inlet bang;
#X obj 173 20 tabwrite~ dynWindow;
#X msg 173 51 \; dynWindow normalize;
#X obj 283 -13 delay 100;
#X connect 1 0 2 0;
#X connect 2 0 4 0;
#X connect 3 0 4 0;
#X connect 3 0 6 0;
#X connect 6 0 5 0;
