#N canvas 1 77 596 388 10;
#X obj 28 14 inlet~ forWindow;
#X obj 29 50 *~ 0.1;
#X obj 51 81 loadbang;
#X obj 51 107 f \$0;
#X msg 51 202 set \$1-dynWindow;
#X obj 28 283 table \$0-dynWindow;
#X obj 28 252 tabwrite~ \$0-dynWindow;
#X obj 271 133 inlet bang;
#X obj 271 163 delay 100;
#X msg 271 281 \; \$1-dynWindow normalize;
#X obj 271 254 f;
#X obj 67 164 outlet;
#X text 259 111 updates table then normalizes;
#X text 343 162 delay normalize until table has filled;
#X text 88 107 set unique table name;
#X connect 0 0 1 0;
#X connect 1 0 6 0;
#X connect 2 0 3 0;
#X connect 3 0 4 0;
#X connect 3 0 10 1;
#X connect 3 0 11 0;
#X connect 4 0 6 0;
#X connect 7 0 6 0;
#X connect 7 0 8 0;
#X connect 8 0 10 0;
#X connect 10 0 9 0;
