#N canvas 116 338 450 300 10;
#X obj 39 52 sig~;
#X obj 40 85 *~ 4096;
#X obj 39 20 inlet formant;
#X obj 40 114 *~;
#X obj 130 20 inlet~ rate;
#X obj 40 224 *~;
#X obj 40 254 outlet~;
#X obj 40 173 tabread4~ dynWindow;
#X obj 180 173 tabread4~ expDec;
#X connect 0 0 1 0;
#X connect 1 0 3 0;
#X connect 2 0 0 0;
#X connect 3 0 7 0;
#X connect 3 0 8 0;
#X connect 4 0 3 1;
#X connect 5 0 6 0;
#X connect 7 0 5 0;
#X connect 8 0 5 1;
