#N canvas 1 77 757 776 10;
#N canvas 95 158 1374 526 Fourses 0;
#N canvas 1011 121 440 333 fourse01---------------------- 0;
#X obj 35 197 atc-horseOsc-feedbackAtten;
#X obj 110 243 delwrite~ osca2 1;
#X obj 110 223 delwrite~ osca1 1;
#X obj 122 94 delread~ oscb1 1;
#X obj 34 293 outlet~;
#X obj 34 13 inlet~ upSpeed;
#X obj 56 33 inlet~ downSpeed;
#X obj 78 53 inlet~ upLimit;
#X obj 100 73 inlet~ downLimit;
#X obj 165 137 inlet~ feedback01;
#X obj 188 159 inlet~ feedback02;
#X text 276 142 -5 -> +5;
#X obj 143 115 delread~ oscb2 1;
#X connect 0 0 4 0;
#X connect 0 1 2 0;
#X connect 0 2 1 0;
#X connect 3 0 0 4;
#X connect 5 0 0 0;
#X connect 6 0 0 1;
#X connect 7 0 0 2;
#X connect 8 0 0 3;
#X connect 9 0 0 6;
#X connect 10 0 0 7;
#X connect 12 0 0 5;
#X restore 13 371 pd fourse01----------------------;
#N canvas 102 119 440 333 fourse02---------------------- 0;
#X obj 34 293 outlet~;
#X obj 34 13 inlet~ upSpeed;
#X obj 56 33 inlet~ downSpeed;
#X obj 78 53 inlet~ upLimit;
#X obj 100 73 inlet~ downLimit;
#X obj 165 137 inlet~ feedback01;
#X obj 188 159 inlet~ feedback02;
#X text 276 142 -5 -> +5;
#X obj 110 223 delwrite~ oscb1 1;
#X obj 110 243 delwrite~ oscb2 1;
#X obj 143 115 delread~ osca2 1;
#X obj 122 94 delread~ osca1 1;
#X obj 35 197 atc-horseOsc-feedbackAtten;
#X connect 1 0 12 0;
#X connect 2 0 12 1;
#X connect 3 0 12 2;
#X connect 4 0 12 3;
#X connect 5 0 12 6;
#X connect 6 0 12 7;
#X connect 10 0 12 5;
#X connect 11 0 12 4;
#X connect 12 0 0 0;
#X connect 12 1 8 0;
#X connect 12 2 9 0;
#X restore 313 371 pd fourse02----------------------;
#X obj 13 400 outlet~;
#X obj 313 400 outlet~;
#X obj 67 320 r sr;
#X obj 52 342 /;
#X obj 52 299 * -1;
#X obj 13 342 /;
#X obj 367 320 r sr;
#X obj 352 342 /;
#X obj 352 299 * -1;
#X obj 313 342 /;
#X obj 13 127 r TFch0101Norm;
#X obj 13 149 * 4000;
#X obj 13 169 + 50;
#X obj 57 171 * 4000;
#X obj 57 191 + 50;
#X obj 57 149 r TFch0202Norm;
#X obj 102 172 r TFch0102Norm;
#X obj 102 194 * 10;
#X obj 102 215 - 5;
#X obj 133 216 * 10;
#X obj 133 237 - 5;
#X obj 133 194 r TFch0201Norm;
#X obj 165 237 * 10;
#X obj 165 258 - 5;
#X obj 198 258 * 10;
#X obj 198 279 - 5;
#X obj 165 216 r TFch0104Norm;
#X obj 198 237 r TFch0203Norm;
#X obj 303 149 * 4000;
#X obj 303 169 + 50;
#X obj 347 171 * 4000;
#X obj 347 191 + 50;
#X obj 392 194 * 10;
#X obj 392 215 - 5;
#X obj 423 216 * 10;
#X obj 423 237 - 5;
#X obj 455 237 * 10;
#X obj 455 258 - 5;
#X obj 488 258 * 10;
#X obj 488 279 - 5;
#X obj 303 127 r TFch0104Norm;
#X obj 347 149 r TFch0201Norm;
#X obj 392 172 r TFch0101Norm;
#X obj 423 194 r TFch0202Norm;
#X obj 455 216 r TFch0103Norm;
#X obj 488 237 r TFch0204Norm;
#X text 130 78 Modulate fourse oscillators;
#X connect 0 0 2 0;
#X connect 1 0 3 0;
#X connect 4 0 5 1;
#X connect 4 0 7 1;
#X connect 5 0 0 1;
#X connect 6 0 5 0;
#X connect 7 0 0 0;
#X connect 8 0 9 1;
#X connect 8 0 11 1;
#X connect 9 0 1 1;
#X connect 10 0 9 0;
#X connect 11 0 1 0;
#X connect 12 0 13 0;
#X connect 13 0 14 0;
#X connect 14 0 7 0;
#X connect 15 0 16 0;
#X connect 16 0 6 0;
#X connect 17 0 15 0;
#X connect 18 0 19 0;
#X connect 19 0 20 0;
#X connect 20 0 0 2;
#X connect 21 0 22 0;
#X connect 22 0 0 3;
#X connect 23 0 21 0;
#X connect 24 0 25 0;
#X connect 25 0 0 4;
#X connect 26 0 27 0;
#X connect 27 0 0 5;
#X connect 28 0 24 0;
#X connect 29 0 26 0;
#X connect 30 0 31 0;
#X connect 31 0 11 0;
#X connect 32 0 33 0;
#X connect 33 0 10 0;
#X connect 34 0 35 0;
#X connect 35 0 1 2;
#X connect 36 0 37 0;
#X connect 37 0 1 3;
#X connect 38 0 39 0;
#X connect 39 0 1 4;
#X connect 40 0 41 0;
#X connect 41 0 1 5;
#X connect 42 0 30 0;
#X connect 43 0 32 0;
#X connect 44 0 34 0;
#X connect 45 0 36 0;
#X connect 46 0 38 0;
#X connect 47 0 40 0;
#X restore 30 131 pd Fourses;
#N canvas 561 440 712 326 pulseGenerator 1;
#X obj 32 20 inlet~ forDynEnv;
#X obj 31 79 atc-dynEnv;
#X obj 137 20 inlet loadNewDynEnv;
#X obj 288 106 atc-pulseVoiceSetWindows;
#X obj 429 51 atc-triggerRate;
#X obj 429 20 inlet triggerRate;
#X obj 288 20 inlet formant;
#X obj 288 143 outlet~;
#X text 534 52 pulsar rate;
#X connect 0 0 1 0;
#X connect 1 0 3 2;
#X connect 2 0 1 1;
#X connect 3 0 7 0;
#X connect 4 0 3 1;
#X connect 5 0 4 0;
#X connect 6 0 3 0;
#X restore 30 242 pd pulseGenerator;
#X obj 30 159 *~ 0.2;
#X obj 179 398 *~;
#X obj 31 503 *~;
#N canvas 475 164 778 522 PulseStateSelector 0;
#N canvas 677 230 708 651 PulseStateFast 0;
#X obj 46 351 *;
#X obj 46 325 t f f;
#X obj 46 466 outlet;
#X obj 46 301 * -1;
#X obj 397 208 outlet;
#X obj 397 91 *;
#X obj 397 65 t f f;
#X obj 46 378 * 200;
#X obj 46 19 r TFch0201Norm;
#X obj 46 261 spigot;
#X obj 126 19 r TFch0101Norm;
#X obj 126 259 spigot;
#X obj 79 234 tgl 15 0 empty empty empty 17 7 0 10 -262144 -1 -1 0
1;
#X obj 159 234 tgl 15 0 empty empty empty 17 7 0 10 -262144 -1 -1 1
1;
#X obj 126 351 *;
#X obj 126 325 t f f;
#X obj 126 301 * -1;
#X obj 220 190 t b;
#X obj 126 407 + 60;
#X obj 556 305 outlet;
#X obj 79 184 loadbang;
#X obj 220 53 r TFch0204Norm;
#X obj 397 124 pipe 5000;
#X obj 126 378 * 500;
#X obj 397 23 r TFch0204Norm;
#X msg 277 138 2;
#X msg 220 138 1;
#X obj 220 163 change;
#X obj 397 187 + 1;
#X text 534 319 trigger new window;
#X obj 46 407 + 50;
#X obj 220 113 moses 0.15;
#X obj 248 191 s state0102sends12;
#X obj 397 163 * 10;
#X text 180 94 frequency of state change;
#X text 395 230 formant;
#X text 40 491 send out pulsar rates;
#X connect 0 0 7 0;
#X connect 1 0 0 0;
#X connect 1 1 0 1;
#X connect 3 0 1 0;
#X connect 5 0 22 0;
#X connect 6 0 5 0;
#X connect 6 1 5 1;
#X connect 7 0 30 0;
#X connect 8 0 9 0;
#X connect 9 0 3 0;
#X connect 10 0 11 0;
#X connect 11 0 16 0;
#X connect 12 0 9 1;
#X connect 13 0 11 1;
#X connect 14 0 23 0;
#X connect 15 0 14 0;
#X connect 15 1 14 1;
#X connect 16 0 15 0;
#X connect 17 0 13 0;
#X connect 17 0 12 0;
#X connect 17 0 19 0;
#X connect 18 0 2 0;
#X connect 20 0 12 0;
#X connect 21 0 31 0;
#X connect 22 0 33 0;
#X connect 23 0 18 0;
#X connect 24 0 6 0;
#X connect 25 0 27 0;
#X connect 26 0 27 0;
#X connect 27 0 17 0;
#X connect 27 0 32 0;
#X connect 28 0 4 0;
#X connect 30 0 2 0;
#X connect 31 0 26 0;
#X connect 31 1 25 0;
#X connect 33 0 28 0;
#X restore 37 118 pd PulseStateFast;
#X obj 37 193 spigot;
#X obj 86 193 spigot;
#X obj 136 193 spigot;
#X msg 186 108 1;
#X msg 217 108 0;
#X obj 186 140 change;
#N canvas 249 327 738 523 PulseStateSlow 0;
#X obj 35 92 sig~;
#X obj 36 125 *~ 4096;
#X obj 36 194 *~;
#X obj 37 224 tabread4~ expDec;
#X msg 35 58 1;
#X obj 37 290 outlet~;
#X obj 195 127 f \$1;
#X msg 195 152 0 \, 1 \$1 0;
#X obj 195 177 vline~;
#X obj 294 394 outlet;
#X obj 196 394 s \$0-grainTrig;
#X obj 196 296 snapshot~;
#X obj 232 261 metro 10;
#X obj 232 233 loadbang;
#X obj 35 25 loadbang;
#X obj 195 4 r \$0-grainTrig;
#X obj 196 321 == 1;
#X obj 196 369 delay 500;
#X obj 196 345 sel 0;
#X floatatom 135 310 5 0 0 0 - - -;
#X obj 132 41 loadbang;
#X obj 335 7 r TFch0102Norm;
#X obj 335 52 *;
#X obj 335 28 t f f;
#X obj 335 94 + 50;
#X obj 348 186 r TFch0104Norm;
#X obj 348 212 * 2000;
#X obj 333 275 f;
#X obj 195 44 t b b;
#X text 366 275 delay time;
#X obj 335 74 * 2000;
#X text 420 117 trigger pulse trains;
#X connect 0 0 1 0;
#X connect 1 0 2 0;
#X connect 2 0 3 0;
#X connect 3 0 5 0;
#X connect 4 0 0 0;
#X connect 6 0 7 0;
#X connect 7 0 8 0;
#X connect 8 0 2 1;
#X connect 8 0 11 0;
#X connect 11 0 16 0;
#X connect 11 0 19 0;
#X connect 12 0 11 0;
#X connect 13 0 12 0;
#X connect 14 0 4 0;
#X connect 15 0 28 0;
#X connect 16 0 18 0;
#X connect 17 0 10 0;
#X connect 17 0 9 0;
#X connect 18 0 17 0;
#X connect 20 0 6 0;
#X connect 21 0 23 0;
#X connect 22 0 30 0;
#X connect 23 0 22 0;
#X connect 23 1 22 1;
#X connect 24 0 6 1;
#X connect 25 0 26 0;
#X connect 26 0 27 1;
#X connect 27 0 17 1;
#X connect 28 0 6 0;
#X connect 28 1 27 0;
#X connect 30 0 24 0;
#X restore 451 132 pd PulseStateSlow;
#X obj 210 285 f;
#X obj 255 285 f;
#X obj 451 202 delwrite~ test 100;
#X obj 451 222 delread~ test 100;
#X obj 37 291 outlet;
#X obj 86 291 outlet;
#X obj 136 291 outlet;
#X obj 210 381 outlet;
#X obj 255 381 outlet;
#X obj 452 291 outlet~;
#X obj 210 323 spigot;
#X obj 255 323 spigot;
#X msg 248 108 0;
#X msg 276 108 1;
#X obj 248 140 change;
#X obj 300 323 spigot;
#X obj 186 77 moses 0.5;
#N canvas 1068 338 450 300 slowRates 0;
#X obj 27 231 outlet;
#X obj 128 231 outlet;
#X obj 27 31 r TFch0102Norm;
#X obj 128 31 r TFch0103Norm;
#X obj 27 132 + 10;
#X obj 128 82 +;
#X obj 27 55 t f f;
#X obj 27 75 *;
#X obj 27 107 * 100;
#X obj 128 57 * 5;
#X connect 2 0 6 0;
#X connect 3 0 9 0;
#X connect 4 0 0 0;
#X connect 5 0 1 0;
#X connect 6 0 7 0;
#X connect 6 1 7 1;
#X connect 7 0 8 0;
#X connect 8 0 4 0;
#X connect 9 0 5 0;
#X restore 225 218 pd slowRates;
#X obj 574 202 s state03TrainTrig;
#X obj 308 179 s state03oneZero;
#X obj 186 54 r TFch0203Norm;
#X obj 86 252 f;
#X text 152 27 split input and select state;
#X text 42 97 quick states;
#X text 302 349 trigger updates on slow states \, update parameters
with new pulse train;
#X connect 0 0 1 0;
#X connect 0 1 2 0;
#X connect 0 1 29 1;
#X connect 0 2 3 0;
#X connect 0 2 29 0;
#X connect 1 0 12 0;
#X connect 3 0 14 0;
#X connect 4 0 6 0;
#X connect 5 0 6 0;
#X connect 6 0 3 1;
#X connect 6 0 2 1;
#X connect 6 0 1 1;
#X connect 7 0 10 0;
#X connect 7 1 8 0;
#X connect 7 1 9 0;
#X connect 7 1 23 0;
#X connect 7 1 26 0;
#X connect 8 0 18 0;
#X connect 9 0 19 0;
#X connect 11 0 17 0;
#X connect 18 0 15 0;
#X connect 19 0 16 0;
#X connect 20 0 22 0;
#X connect 21 0 22 0;
#X connect 22 0 18 1;
#X connect 22 0 19 1;
#X connect 22 0 23 1;
#X connect 22 0 27 0;
#X connect 23 0 14 0;
#X connect 24 0 4 0;
#X connect 24 0 20 0;
#X connect 24 1 5 0;
#X connect 24 1 21 0;
#X connect 25 0 8 1;
#X connect 25 1 9 1;
#X connect 28 0 24 0;
#X connect 29 0 13 0;
#X restore 72 193 pd PulseStateSelector;
#X obj 178 496 *~;
#N canvas 958 209 450 476 muteTracks 0;
#X obj 74 10 r TFch0203Norm;
#X obj 74 33 moses 0.5;
#X msg 188 76 1;
#X msg 74 76 0;
#X msg 44 76 1;
#X msg 156 76 0;
#X msg 25 182 0 \, 1 30 0;
#X msg 45 204 1 \, 0 30 0;
#X obj 45 243 vline~;
#X obj 137 243 vline~;
#X obj 44 116 change;
#X obj 25 140 sel 1;
#X obj 44 160 sel 0;
#X msg 137 182 0 \, 1 30 0;
#X msg 156 204 1 \, 0 30 0;
#X obj 156 116 change;
#X obj 137 140 sel 1;
#X obj 156 160 sel 0;
#X obj 45 294 outlet~;
#X obj 136 294 outlet~;
#X connect 0 0 1 0;
#X connect 1 0 3 0;
#X connect 1 0 2 0;
#X connect 1 1 5 0;
#X connect 1 1 4 0;
#X connect 2 0 15 0;
#X connect 3 0 10 0;
#X connect 4 0 10 0;
#X connect 5 0 15 0;
#X connect 6 0 8 0;
#X connect 7 0 8 0;
#X connect 8 0 18 0;
#X connect 9 0 19 0;
#X connect 10 0 11 0;
#X connect 10 0 12 0;
#X connect 11 0 6 0;
#X connect 12 0 7 0;
#X connect 13 0 9 0;
#X connect 14 0 9 0;
#X connect 15 0 16 0;
#X connect 15 0 17 0;
#X connect 16 0 13 0;
#X connect 17 0 14 0;
#X restore 69 452 pd muteTracks;
#N canvas 83 77 1385 791 sendOuts 0;
#X obj 92 16 r TFch0101Norm;
#X obj 97 327 r TFch0103Norm;
#X obj 322 16 r TFch0201Norm;
#X obj 337 327 r TFch0203Norm;
#X obj 582 16 r TFch0202Norm;
#X obj 607 327 r TFch0204Norm;
#X obj 852 16 r TFch0102Norm;
#X obj 867 327 r TFch0104Norm;
#X obj 92 78 line;
#X obj 322 78 line;
#X obj 582 78 line;
#X obj 852 78 line;
#X obj 97 409 line;
#X obj 337 412 line;
#X obj 607 409 line;
#X obj 867 409 line;
#X msg 92 53 \$1 10000;
#X msg 322 53 \$1 10000;
#X msg 582 53 \$1 10000;
#X msg 852 53 \$1 10000;
#X msg 867 384 \$1 10000;
#X msg 607 384 \$1 10000;
#X msg 337 384 \$1 10000;
#X msg 97 384 \$1 10000;
#X obj 837 144 f;
#X obj 567 144 f;
#X obj 307 144 f;
#X obj 77 144 f;
#X obj 82 475 f;
#X obj 322 475 f;
#X obj 592 475 f;
#X obj 852 475 f;
#X obj 77 112 r metroOut;
#X obj 1092 104 r state03TrainTrig;
#X obj 1107 150 r TFch0101Norm;
#X obj 1207 150 r TFch0103Norm;
#X obj 1092 176 f;
#X obj 1192 176 f;
#X obj 1225 176 r state03oneZero;
#X obj 1092 266 s state0301;
#X obj 1192 266 s state0302;
#X obj 1092 220 spigot;
#X obj 1192 220 spigot;
#X obj 307 268 s yloc01;
#X obj 567 268 s xloc02;
#X obj 837 268 s yloc02;
#X obj 307 112 r metroOut;
#X obj 567 112 r metroOut;
#X obj 837 112 r metroOut;
#X obj 82 443 r metroOut;
#X obj 322 443 r metroOut;
#X obj 592 443 r metroOut;
#X obj 852 443 r metroOut;
#X obj 77 207 spigot;
#X obj 1284 212 * -1;
#X obj 1284 232 + 1;
#X obj 1284 252 s stateBlock;
#X obj 110 182 r stateBlock;
#X obj 158 144 f;
#X obj 158 112 r state03TrainTrig;
#X obj 158 207 spigot;
#X obj 191 166 r state03oneZero;
#X obj 307 208 spigot;
#X obj 340 183 r stateBlock;
#X obj 388 145 f;
#X obj 388 113 r state03TrainTrig;
#X obj 388 208 spigot;
#X obj 421 167 r state03oneZero;
#X obj 567 208 spigot;
#X obj 600 183 r stateBlock;
#X obj 648 145 f;
#X obj 648 113 r state03TrainTrig;
#X obj 648 208 spigot;
#X obj 681 167 r state03oneZero;
#X obj 837 207 spigot;
#X obj 870 182 r stateBlock;
#X obj 918 144 f;
#X obj 918 112 r state03TrainTrig;
#X obj 918 207 spigot;
#X obj 951 166 r state03oneZero;
#X obj 82 540 spigot;
#X obj 115 515 r stateBlock;
#X obj 163 477 f;
#X obj 163 445 r state03TrainTrig;
#X obj 163 540 spigot;
#X obj 196 499 r state03oneZero;
#X obj 322 538 spigot;
#X obj 355 513 r stateBlock;
#X obj 403 475 f;
#X obj 403 443 r state03TrainTrig;
#X obj 403 538 spigot;
#X obj 436 497 r state03oneZero;
#X obj 592 538 spigot;
#X obj 625 513 r stateBlock;
#X obj 673 475 f;
#X obj 673 443 r state03TrainTrig;
#X obj 673 538 spigot;
#X obj 706 497 r state03oneZero;
#X obj 852 538 spigot;
#X obj 885 513 r stateBlock;
#X obj 933 475 f;
#X obj 933 443 r state03TrainTrig;
#X obj 933 538 spigot;
#X obj 966 497 r state03oneZero;
#X obj 82 608 s xloc03;
#X obj 322 608 s yloc03;
#X obj 592 608 s xloc04;
#X obj 852 606 s yloc04;
#X obj 453 290 loadbang;
#X msg 453 317 1;
#X msg 512 322 0.6;
#X msg 546 322 0.25;
#X text 445 658 send outputs to processing \, update in time with pulsars
/ trains;
#X obj 77 268 s xloc01;
#X connect 0 0 16 0;
#X connect 1 0 23 0;
#X connect 2 0 17 0;
#X connect 3 0 22 0;
#X connect 4 0 18 0;
#X connect 5 0 21 0;
#X connect 6 0 19 0;
#X connect 7 0 20 0;
#X connect 8 0 27 1;
#X connect 8 0 58 1;
#X connect 9 0 26 1;
#X connect 9 0 64 1;
#X connect 10 0 25 1;
#X connect 10 0 70 1;
#X connect 11 0 24 1;
#X connect 11 0 76 1;
#X connect 12 0 28 1;
#X connect 12 0 82 1;
#X connect 13 0 29 1;
#X connect 13 0 88 1;
#X connect 14 0 30 1;
#X connect 14 0 94 1;
#X connect 15 0 31 1;
#X connect 15 0 100 1;
#X connect 16 0 8 0;
#X connect 17 0 9 0;
#X connect 18 0 10 0;
#X connect 19 0 11 0;
#X connect 20 0 15 0;
#X connect 21 0 14 0;
#X connect 22 0 13 0;
#X connect 23 0 12 0;
#X connect 24 0 74 0;
#X connect 25 0 68 0;
#X connect 26 0 62 0;
#X connect 27 0 53 0;
#X connect 28 0 80 0;
#X connect 29 0 86 0;
#X connect 30 0 92 0;
#X connect 31 0 98 0;
#X connect 32 0 27 0;
#X connect 33 0 37 0;
#X connect 33 0 36 0;
#X connect 34 0 36 1;
#X connect 35 0 37 1;
#X connect 36 0 41 0;
#X connect 37 0 42 0;
#X connect 38 0 41 1;
#X connect 38 0 42 1;
#X connect 38 0 54 0;
#X connect 41 0 39 0;
#X connect 42 0 40 0;
#X connect 46 0 26 0;
#X connect 47 0 25 0;
#X connect 48 0 24 0;
#X connect 49 0 28 0;
#X connect 50 0 29 0;
#X connect 51 0 30 0;
#X connect 52 0 31 0;
#X connect 53 0 113 0;
#X connect 54 0 55 0;
#X connect 55 0 56 0;
#X connect 57 0 53 1;
#X connect 58 0 60 0;
#X connect 59 0 58 0;
#X connect 60 0 113 0;
#X connect 61 0 60 1;
#X connect 62 0 43 0;
#X connect 63 0 62 1;
#X connect 64 0 66 0;
#X connect 65 0 64 0;
#X connect 66 0 43 0;
#X connect 67 0 66 1;
#X connect 68 0 44 0;
#X connect 69 0 68 1;
#X connect 70 0 72 0;
#X connect 71 0 70 0;
#X connect 72 0 44 0;
#X connect 73 0 72 1;
#X connect 74 0 45 0;
#X connect 75 0 74 1;
#X connect 76 0 78 0;
#X connect 77 0 76 0;
#X connect 78 0 45 0;
#X connect 79 0 78 1;
#X connect 80 0 104 0;
#X connect 81 0 80 1;
#X connect 82 0 84 0;
#X connect 83 0 82 0;
#X connect 84 0 104 0;
#X connect 85 0 84 1;
#X connect 86 0 105 0;
#X connect 87 0 86 1;
#X connect 88 0 90 0;
#X connect 89 0 88 0;
#X connect 90 0 105 0;
#X connect 91 0 90 1;
#X connect 92 0 106 0;
#X connect 93 0 92 1;
#X connect 94 0 96 0;
#X connect 95 0 94 0;
#X connect 96 0 106 0;
#X connect 97 0 96 1;
#X connect 98 0 107 0;
#X connect 99 0 98 1;
#X connect 100 0 102 0;
#X connect 101 0 100 0;
#X connect 102 0 107 0;
#X connect 103 0 102 1;
#X connect 108 0 109 0;
#X connect 108 0 110 0;
#X connect 108 0 111 0;
#X connect 109 0 74 1;
#X connect 109 0 68 1;
#X connect 109 0 92 1;
#X connect 109 0 98 1;
#X connect 109 0 62 1;
#X connect 109 0 86 1;
#X connect 109 0 53 1;
#X connect 109 0 80 1;
#X connect 110 0 39 0;
#X connect 111 0 40 0;
#X restore -115 64 pd sendOuts;
#N canvas 553 261 691 345 lateReverb 0;
#X obj 114 47 inlet~;
#X obj 115 191 rev3~ 80 90 3000 20;
#X obj 115 251 outlet~;
#X obj 168 251 outlet~;
#X text 246 124 < A predelay added to make 'room' for the binaural
early reflections;
#X obj 114 82 *~ 0.4;
#X text 166 82 < Late reverb level;
#X obj 115 122 delwrite~ predel01 80;
#X obj 115 144 delread~ predel01 50;
#X text 170 45 from 3dception help patch example;
#X connect 0 0 5 0;
#X connect 1 0 2 0;
#X connect 1 1 3 0;
#X connect 5 0 7 0;
#X connect 8 0 1 0;
#X restore 177 557 pd lateReverb;
#X msg 121 318 0 10 0 \, 1 10 110;
#X obj 121 344 vline~;
#X obj 31 399 *~;
#N canvas 1054 282 360 430 panning 0;
#X msg 58 219 aed \$1 \$2 \$3;
#X obj 58 194 pack f f f;
#X obj 112 81 pipe 5000;
#X obj 58 81 * 360;
#X obj 58 101 - 180;
#X obj 112 103 * 100;
#X obj 112 123 - 50;
#X obj 17 282 outlet~;
#X obj 158 282 outlet~;
#X obj 19 23 inlet~;
#X obj 175 131 t f f;
#X obj 175 151 *;
#X obj 175 105 pipe 10000;
#X obj 175 177 * 3;
#X obj 175 80 r TFch0104Norm;
#X obj 47 248 tbe_3Dception~;
#X obj 112 61 r TFch0101Norm;
#X obj 58 42 r TFch0203Norm;
#X text 70 17 set aed of source;
#X connect 0 0 15 0;
#X connect 1 0 0 0;
#X connect 2 0 5 0;
#X connect 3 0 4 0;
#X connect 4 0 1 0;
#X connect 5 0 6 0;
#X connect 6 0 1 1;
#X connect 9 0 15 0;
#X connect 9 0 7 0;
#X connect 9 0 8 0;
#X connect 10 0 11 0;
#X connect 10 1 11 1;
#X connect 11 0 13 0;
#X connect 12 0 10 0;
#X connect 13 0 1 2;
#X connect 14 0 12 0;
#X connect 16 0 2 0;
#X connect 17 0 3 0;
#X restore 32 557 pd panning;
#N canvas 125 140 450 300 sensorInput 0;
#X obj 65 27 r accelX;
#X obj 65 60 moses -10;
#X obj 65 90 moses 10;
#X obj 65 117 + 10;
#X obj 65 137 / 20;
#X obj 65 159 s accelXNorm;
#X obj 175 60 moses -10;
#X obj 175 90 moses 10;
#X obj 175 117 + 10;
#X obj 175 137 / 20;
#X obj 285 60 moses -10;
#X obj 285 90 moses 10;
#X obj 285 117 + 10;
#X obj 285 137 / 20;
#X obj 175 27 r accelY;
#X obj 175 159 s accelYNorm;
#X obj 285 27 r accelZ;
#X obj 285 159 s accelZNorm;
#X text 128 187 Accelerometer input;
#X connect 0 0 1 0;
#X connect 1 1 2 0;
#X connect 2 0 3 0;
#X connect 3 0 4 0;
#X connect 4 0 5 0;
#X connect 6 1 7 0;
#X connect 7 0 8 0;
#X connect 8 0 9 0;
#X connect 9 0 15 0;
#X connect 10 1 11 0;
#X connect 11 0 12 0;
#X connect 12 0 13 0;
#X connect 13 0 17 0;
#X connect 14 0 6 0;
#X connect 16 0 10 0;
#X restore 40 30 pd sensorInput;
#X obj 32 595 *~ 0.8;
#X obj 90 595 *~ 0.8;
#X obj 177 595 *~ 0.8;
#X obj 252 595 *~ 0.8;
#N canvas 17 324 871 540 chuaOscillators 0;
#N canvas 96 116 837 624 chua01------- 0;
#X obj 49 394 f;
#X obj 156 394 f;
#X obj 263 393 f;
#X obj 370 393 f;
#X msg 242 117 -1.14286;
#X msg 302 117 -0.714286;
#X msg 370 117 1;
#X msg 180 117 0;
#X msg 63 117 15.49;
#X msg 124 117 25.96;
#X obj 460 292 t b b b b;
#X obj 460 223 loadbang;
#X obj 521 242 bng 15 250 50 0 empty empty empty 17 7 0 10 -262144
-1 -1;
#X obj 68 439 outlet;
#X obj 170 439 outlet;
#X obj 276 439 outlet;
#X obj 386 439 outlet;
#X obj 63 170 v alpha01;
#X obj 124 170 v beta01;
#X obj 180 170 v gamma01;
#X obj 242 170 v a01;
#X obj 302 170 v b01;
#X obj 370 170 v k01;
#X obj 423 170 v dt01;
#X obj 64 238 expr $f1 + k01 * (alpha01 * ($f2 - $f1 - $f4)) * dt01
\; $f2 + k01 * ($f1 - $f2 + $f3) * dt01 \; $f3 + k01 * (-beta01 * $f2
- gamma01 * $f3) * dt01 \; if ($f1>=1 \, b01*$f1+(a01-b01) \, if ($f1>=-1
\, a01*$f1 \, b01*$f1-(a01-b01)));
#X msg 85 354 1.1646;
#X msg 189 355 -0.097335;
#X msg 299 354 -0.90556;
#X obj 89 78 inlet alpha;
#X obj 169 78 inlet beta;
#X obj 439 78 inlet dt;
#X obj 111 322 loadbang;
#X obj 261 34 loadbang;
#X obj 64 208 r out11;
#X obj 171 209 r out12;
#X obj 278 208 r out13;
#X obj 385 208 r out14;
#X obj 370 417 s out14;
#X obj 263 417 s out13;
#X obj 156 417 s out12;
#X obj 49 417 s out11;
#X floatatom 511 380 5 0 0 0 - - -;
#X floatatom 479 429 5 0 0 0 - - -;
#X obj 460 246 delay 10;
#X obj 460 270 metro 10;
#X msg 423 116 0.01;
#X text 481 136 Adapted from Yadegari \, S. 2003 Chaotic signal synthesis
with real-time control: Solving differential equations in pd \, max/msp
\, and jmax. Proceedings of Digital Audio Effects (DAFx-03).;
#X connect 0 0 13 0;
#X connect 0 0 40 0;
#X connect 1 0 14 0;
#X connect 1 0 39 0;
#X connect 2 0 15 0;
#X connect 2 0 38 0;
#X connect 3 0 16 0;
#X connect 3 0 37 0;
#X connect 3 0 42 0;
#X connect 4 0 20 0;
#X connect 5 0 21 0;
#X connect 6 0 22 0;
#X connect 7 0 19 0;
#X connect 8 0 17 0;
#X connect 9 0 18 0;
#X connect 10 0 0 0;
#X connect 10 1 1 0;
#X connect 10 2 2 0;
#X connect 10 3 3 0;
#X connect 11 0 43 0;
#X connect 12 0 44 0;
#X connect 24 0 0 1;
#X connect 24 1 1 1;
#X connect 24 2 2 1;
#X connect 24 3 3 1;
#X connect 24 3 41 0;
#X connect 25 0 0 1;
#X connect 26 0 1 1;
#X connect 27 0 2 1;
#X connect 28 0 17 0;
#X connect 29 0 18 0;
#X connect 30 0 23 0;
#X connect 31 0 25 0;
#X connect 31 0 26 0;
#X connect 31 0 27 0;
#X connect 32 0 8 0;
#X connect 32 0 9 0;
#X connect 32 0 7 0;
#X connect 32 0 4 0;
#X connect 32 0 5 0;
#X connect 32 0 6 0;
#X connect 32 0 45 0;
#X connect 33 0 24 0;
#X connect 34 0 24 1;
#X connect 35 0 24 2;
#X connect 36 0 24 3;
#X connect 43 0 44 0;
#X connect 44 0 10 0;
#X connect 45 0 23 0;
#X restore 231 233 pd chua01-------;
#N canvas 364 269 944 527 chua02------- 0;
#X obj 59 404 f;
#X obj 166 404 f;
#X obj 273 403 f;
#X obj 380 403 f;
#X msg 252 127 -1.14286;
#X msg 312 127 -0.714286;
#X msg 380 127 1;
#X msg 190 127 0;
#X msg 73 127 15.49;
#X msg 134 127 25.96;
#X obj 470 302 t b b b b;
#X obj 470 233 loadbang;
#X obj 531 252 bng 15 250 50 0 empty empty empty 17 7 0 10 -262144
-1 -1;
#X obj 59 427 s \$0-out1;
#X obj 166 427 s \$0-out2;
#X obj 273 427 s \$0-out3;
#X obj 380 427 s \$0-out4;
#X obj 74 218 r \$0-out1;
#X obj 181 218 r \$0-out2;
#X obj 288 218 r \$0-out3;
#X obj 395 218 r \$0-out4;
#X obj 78 449 outlet;
#X obj 180 449 outlet;
#X obj 286 449 outlet;
#X obj 396 449 outlet;
#X obj 99 88 inlet alpha;
#X obj 179 88 inlet beta;
#X obj 449 88 inlet dt;
#X obj 470 256 delay 10;
#X obj 121 332 loadbang;
#X obj 271 44 loadbang;
#X obj 73 180 v alpha02;
#X obj 134 180 v beta02;
#X obj 190 180 v gamma02;
#X obj 252 180 v a02;
#X obj 312 180 v b02;
#X obj 380 180 v k02;
#X obj 433 180 v dt02;
#X obj 74 248 expr $f1 + k02 * (alpha02 * ($f2 - $f1 - $f4)) * dt02
\; $f2 + k02 * ($f1 - $f2 + $f3) * dt02 \; $f3 + k02 * (-beta02 * $f2
- gamma02 * $f3) * dt02 \; if ($f1>=1 \, b02*$f1+(a02-b02) \, if ($f1>=-1
\, a02*$f1 \, b02*$f1-(a02-b02)));
#X msg 95 364 1.16346;
#X msg 199 365 -0.0972335;
#X msg 309 364 -0.905656;
#X floatatom 485 407 10 0 0 0 - - -;
#X floatatom 5 471 5 0 0 0 - - -;
#X floatatom 27 278 5 0 0 0 - - -;
#X obj 470 279 metro 10;
#X msg 435 127 0.001;
#X text 544 42 Adapted from Yadegari \, S. 2003 Chaotic signal synthesis
with real-time control: Solving differential equations in pd \, max/msp
\, and jmax. Proceedings of Digital Audio Effects (DAFx-03).;
#X connect 0 0 13 0;
#X connect 0 0 21 0;
#X connect 0 0 43 0;
#X connect 1 0 14 0;
#X connect 1 0 22 0;
#X connect 2 0 15 0;
#X connect 2 0 23 0;
#X connect 3 0 16 0;
#X connect 3 0 24 0;
#X connect 4 0 34 0;
#X connect 5 0 35 0;
#X connect 6 0 36 0;
#X connect 7 0 33 0;
#X connect 8 0 31 0;
#X connect 9 0 32 0;
#X connect 10 0 0 0;
#X connect 10 1 1 0;
#X connect 10 2 2 0;
#X connect 10 3 3 0;
#X connect 11 0 28 0;
#X connect 12 0 45 0;
#X connect 17 0 44 0;
#X connect 17 0 38 0;
#X connect 18 0 38 1;
#X connect 19 0 38 2;
#X connect 20 0 38 3;
#X connect 25 0 31 0;
#X connect 26 0 32 0;
#X connect 27 0 37 0;
#X connect 28 0 45 0;
#X connect 29 0 39 0;
#X connect 29 0 40 0;
#X connect 29 0 41 0;
#X connect 30 0 8 0;
#X connect 30 0 9 0;
#X connect 30 0 7 0;
#X connect 30 0 4 0;
#X connect 30 0 5 0;
#X connect 30 0 6 0;
#X connect 30 0 46 0;
#X connect 38 0 0 1;
#X connect 38 1 1 1;
#X connect 38 2 2 1;
#X connect 38 2 42 0;
#X connect 38 3 3 1;
#X connect 39 0 0 1;
#X connect 40 0 1 1;
#X connect 41 0 2 1;
#X connect 45 0 10 0;
#X connect 46 0 37 0;
#X restore 423 233 pd chua02-------;
#N canvas 573 309 908 306 scaleOutputs----------------------------
0;
#X obj 4 94 + 2.28;
#X obj 4 114 / 4.56;
#X obj 4 136 clip 0 1;
#X obj 4 163 s TFch0101Norm;
#X obj 107 136 clip 0 1;
#X obj 107 94 + 0.405;
#X obj 107 114 / 0.81;
#X obj 211 136 clip 0 1;
#X obj 211 94 + 3.61;
#X obj 211 114 / 7.18;
#X obj 315 136 clip 0 1;
#X obj 315 94 + 2.06;
#X obj 444 94 + 2.28;
#X obj 444 114 / 4.56;
#X obj 444 136 clip 0 1;
#X obj 547 136 clip 0 1;
#X obj 547 94 + 0.405;
#X obj 547 114 / 0.81;
#X obj 651 138 clip 0 1;
#X obj 651 94 + 3.61;
#X obj 651 114 / 7.18;
#X obj 755 136 clip 0 1;
#X obj 755 94 + 2.06;
#X obj 107 163 s TFch0102Norm;
#X obj 211 163 s TFch0103Norm;
#X obj 315 163 s TFch0104Norm;
#X obj 444 163 s TFch0201Norm;
#X obj 547 163 s TFch0202Norm;
#X obj 651 163 s TFch0203Norm;
#X obj 755 163 s TFch0204Norm;
#X obj 315 114 / 4.12;
#X obj 755 114 / 4.12;
#X obj 4 57 inlet;
#X obj 107 57 inlet;
#X obj 211 57 inlet;
#X obj 315 57 inlet;
#X obj 444 57 inlet;
#X obj 547 57 inlet;
#X obj 651 57 inlet;
#X obj 755 57 inlet;
#X connect 0 0 1 0;
#X connect 1 0 2 0;
#X connect 2 0 3 0;
#X connect 4 0 23 0;
#X connect 5 0 6 0;
#X connect 6 0 4 0;
#X connect 7 0 24 0;
#X connect 8 0 9 0;
#X connect 9 0 7 0;
#X connect 10 0 25 0;
#X connect 11 0 30 0;
#X connect 12 0 13 0;
#X connect 13 0 14 0;
#X connect 14 0 26 0;
#X connect 15 0 27 0;
#X connect 16 0 17 0;
#X connect 17 0 15 0;
#X connect 18 0 28 0;
#X connect 19 0 20 0;
#X connect 20 0 18 0;
#X connect 21 0 29 0;
#X connect 22 0 31 0;
#X connect 30 0 10 0;
#X connect 31 0 21 0;
#X connect 32 0 0 0;
#X connect 33 0 5 0;
#X connect 34 0 8 0;
#X connect 35 0 11 0;
#X connect 36 0 12 0;
#X connect 37 0 16 0;
#X connect 38 0 19 0;
#X connect 39 0 22 0;
#X restore 231 316 pd scaleOutputs----------------------------;
#X obj 324 163 * 0.01;
#X obj 324 183 + 0.01;
#X obj 324 138 r TFch0204Norm;
#X obj 292 63 r TFch0201Norm;
#X obj 292 85 pipe 150;
#X obj 292 106 + 25;
#X obj 423 65 r TFch0101Norm;
#X obj 423 91 pipe 500;
#X obj 423 115 + 15;
#X obj 469 191 + 25;
#X obj 201 89 + 15;
#X text 218 26 Modulate chua oscillators by each other and accelerometer
input;
#X obj 201 63 r TFch0203Norm;
#X obj 469 163 r TFch0103Norm;
#X connect 0 0 2 0;
#X connect 0 1 2 1;
#X connect 0 2 2 2;
#X connect 0 3 2 3;
#X connect 1 0 2 4;
#X connect 1 1 2 5;
#X connect 1 2 2 6;
#X connect 1 3 2 7;
#X connect 3 0 4 0;
#X connect 4 0 0 2;
#X connect 5 0 3 0;
#X connect 6 0 7 0;
#X connect 7 0 8 0;
#X connect 8 0 0 1;
#X connect 9 0 10 0;
#X connect 10 0 11 0;
#X connect 11 0 1 0;
#X connect 12 0 1 1;
#X connect 13 0 0 0;
#X connect 15 0 13 0;
#X connect 16 0 12 0;
#X restore 30 85 pd chuaOscillators;
#X text 229 315 mute on window update - avoid clicks;
#X text 218 189 <- select states - update paramaters (from f objects)
with pulsar triggers (fast rates) and pulse train triggers (slow rates)
;
#X obj 31 677 outlet~;
#X obj 91 677 outlet~;
#X connect 0 0 2 0;
#X connect 0 1 2 0;
#X connect 1 0 3 0;
#X connect 1 0 12 0;
#X connect 2 0 1 0;
#X connect 3 0 6 0;
#X connect 4 0 9 0;
#X connect 4 0 13 0;
#X connect 5 0 1 3;
#X connect 5 1 1 2;
#X connect 5 2 1 1;
#X connect 5 2 10 0;
#X connect 5 3 1 3;
#X connect 5 4 1 2;
#X connect 5 5 3 1;
#X connect 6 0 9 0;
#X connect 6 0 13 0;
#X connect 7 0 6 1;
#X connect 7 1 4 1;
#X connect 9 0 17 0;
#X connect 9 1 18 0;
#X connect 10 0 11 0;
#X connect 11 0 12 1;
#X connect 12 0 4 0;
#X connect 13 0 15 0;
#X connect 13 1 16 0;
#X connect 15 0 22 0;
#X connect 16 0 23 0;
#X connect 17 0 22 0;
#X connect 18 0 23 0;
