#N canvas 1 77 774 808 10;
#N canvas 89 155 1374 526 Fourses 0;
#N canvas 1009 120 440 333 fourse01---------------------- 0;
#X obj 35 197 atc-horseOsc-feedbackAtten;
#X obj 110 243 delwrite~ TFosca2 1;
#X obj 110 223 delwrite~ TFosca1 1;
#X obj 122 94 delread~ TFoscb1 1;
#X obj 34 293 outlet~;
#X obj 34 13 inlet~ upSpeed;
#X obj 56 33 inlet~ downSpeed;
#X obj 78 53 inlet~ upLimit;
#X obj 100 73 inlet~ downLimit;
#X obj 165 137 inlet~ feedback01;
#X obj 188 159 inlet~ feedback02;
#X text 276 142 -5 -> +5;
#X obj 143 115 delread~ TFoscb2 1;
#X connect 0 0 4 0;
#X connect 0 1 2 0;
#X connect 0 2 1 0;
#X connect 3 0 0 4;
#X connect 5 0 0 0;
#X connect 6 0 0 1;
#X connect 7 0 0 2;
#X connect 8 0 0 3;
#X connect 9 0 0 6;
#X connect 10 0 0 7;
#X connect 12 0 0 5;
#X restore 13 371 pd fourse01----------------------;
#N canvas 100 118 440 333 fourse02---------------------- 0;
#X obj 34 293 outlet~;
#X obj 34 13 inlet~ upSpeed;
#X obj 56 33 inlet~ downSpeed;
#X obj 78 53 inlet~ upLimit;
#X obj 100 73 inlet~ downLimit;
#X obj 165 137 inlet~ feedback01;
#X obj 188 159 inlet~ feedback02;
#X text 276 142 -5 -> +5;
#X obj 110 223 delwrite~ TFoscb1 1;
#X obj 110 243 delwrite~ TFoscb2 1;
#X obj 143 115 delread~ TFosca2 1;
#X obj 122 94 delread~ TFosca1 1;
#X obj 35 197 atc-horseOsc-feedbackAtten;
#X connect 1 0 12 0;
#X connect 2 0 12 1;
#X connect 3 0 12 2;
#X connect 4 0 12 3;
#X connect 5 0 12 6;
#X connect 6 0 12 7;
#X connect 10 0 12 5;
#X connect 11 0 12 4;
#X connect 12 0 0 0;
#X connect 12 1 8 0;
#X connect 12 2 9 0;
#X restore 313 371 pd fourse02----------------------;
#X obj 13 400 outlet~;
#X obj 313 400 outlet~;
#X obj 67 320 r sr;
#X obj 52 342 /;
#X obj 52 299 * -1;
#X obj 13 342 /;
#X obj 367 320 r sr;
#X obj 352 342 /;
#X obj 352 299 * -1;
#X obj 313 342 /;
#X obj 13 127 r TFch0101Norm;
#X obj 13 149 * 4000;
#X obj 13 169 + 50;
#X obj 57 171 * 4000;
#X obj 57 191 + 50;
#X obj 57 149 r TFch0202Norm;
#X obj 102 172 r TFch0102Norm;
#X obj 133 194 r TFch0201Norm;
#X obj 165 216 r TFch0104Norm;
#X obj 198 237 r TFch0203Norm;
#X obj 303 149 * 4000;
#X obj 303 169 + 50;
#X obj 347 171 * 4000;
#X obj 347 191 + 50;
#X obj 303 127 r TFch0104Norm;
#X obj 347 149 r TFch0201Norm;
#X obj 392 172 r TFch0101Norm;
#X obj 423 194 r TFch0202Norm;
#X obj 455 216 r TFch0103Norm;
#X obj 488 237 r TFch0204Norm;
#X text 130 78 Modulate fourse oscillators;
#X obj 717 87 adc~;
#X obj 782 137 route 1;
#X obj 782 157 unpack;
#X obj 815 180 + 15;
#X obj 717 137 route 2;
#X obj 717 159 unpack;
#X obj 717 183 + 15;
#X obj 717 107 fiddle~ 1024 1 20 3;
#X floatatom 771 233 5 0 0 0 - - -;
#X floatatom 832 236 5 0 0 0 - - -;
#X obj 488 279 - 2;
#X obj 455 258 - 2;
#X obj 423 237 - 2;
#X obj 392 215 - 2;
#X obj 198 279 - 2;
#X obj 166 258 - 2;
#X obj 133 237 - 2;
#X obj 102 215 - 2;
#X obj 102 194 * 6;
#X obj 133 216 * 6;
#X obj 165 237 * 6;
#X obj 199 257 * 6;
#X obj 392 194 * 6;
#X obj 425 216 * 6;
#X obj 455 237 * 6;
#X obj 488 258 * 6;
#X connect 0 0 2 0;
#X connect 1 0 3 0;
#X connect 4 0 5 1;
#X connect 4 0 7 1;
#X connect 5 0 0 1;
#X connect 6 0 5 0;
#X connect 7 0 0 0;
#X connect 8 0 9 1;
#X connect 8 0 11 1;
#X connect 9 0 1 1;
#X connect 10 0 9 0;
#X connect 11 0 1 0;
#X connect 12 0 13 0;
#X connect 13 0 14 0;
#X connect 14 0 7 0;
#X connect 15 0 16 0;
#X connect 16 0 6 0;
#X connect 17 0 15 0;
#X connect 18 0 51 0;
#X connect 19 0 52 0;
#X connect 20 0 53 0;
#X connect 21 0 54 0;
#X connect 22 0 23 0;
#X connect 23 0 11 0;
#X connect 24 0 25 0;
#X connect 25 0 10 0;
#X connect 26 0 22 0;
#X connect 27 0 24 0;
#X connect 28 0 55 0;
#X connect 29 0 56 0;
#X connect 30 0 57 0;
#X connect 31 0 58 0;
#X connect 33 0 40 0;
#X connect 34 0 35 0;
#X connect 35 1 36 0;
#X connect 35 1 42 0;
#X connect 37 0 38 0;
#X connect 38 1 39 0;
#X connect 38 1 41 0;
#X connect 40 4 34 0;
#X connect 40 4 37 0;
#X connect 43 0 1 5;
#X connect 44 0 1 4;
#X connect 45 0 1 3;
#X connect 46 0 1 2;
#X connect 47 0 0 5;
#X connect 48 0 0 4;
#X connect 49 0 0 3;
#X connect 50 0 0 2;
#X connect 51 0 50 0;
#X connect 52 0 49 0;
#X connect 53 0 48 0;
#X connect 54 0 47 0;
#X connect 55 0 46 0;
#X connect 56 0 45 0;
#X connect 57 0 44 0;
#X connect 58 0 43 0;
#X restore 30 131 pd Fourses;
#N canvas 555 437 712 326 pulseGenerator 0;
#X obj 32 20 inlet~ forDynEnv;
#X obj 31 79 atc-dynEnv;
#X obj 137 20 inlet loadNewDynEnv;
#X obj 288 106 atc-pulseVoiceSetWindows;
#X obj 429 51 atc-triggerRate;
#X obj 429 20 inlet triggerRate;
#X obj 288 20 inlet formant;
#X obj 288 143 outlet~;
#X text 534 52 pulsar rate;
#X connect 0 0 1 0;
#X connect 1 0 3 2;
#X connect 2 0 1 1;
#X connect 3 0 7 0;
#X connect 4 0 3 1;
#X connect 5 0 4 0;
#X connect 6 0 3 0;
#X restore 30 242 pd pulseGenerator;
#X obj 30 159 *~ 0.2;
#X obj 179 398 *~;
#X obj 31 553 *~;
#N canvas 777 96 778 522 PulseStateSelector 0;
#N canvas 854 364 708 651 PulseStateFast 0;
#X obj 46 351 *;
#X obj 46 325 t f f;
#X obj 46 466 outlet;
#X obj 46 301 * -1;
#X obj 397 208 outlet;
#X obj 397 91 *;
#X obj 397 65 t f f;
#X obj 46 378 * 200;
#X obj 46 19 r TFch0201Norm;
#X obj 46 261 spigot;
#X obj 126 19 r TFch0101Norm;
#X obj 126 259 spigot;
#X obj 79 234 tgl 15 0 empty empty empty 17 7 0 10 -262144 -1 -1 0
1;
#X obj 159 234 tgl 15 0 empty empty empty 17 7 0 10 -262144 -1 -1 1
1;
#X obj 126 351 *;
#X obj 126 325 t f f;
#X obj 126 301 * -1;
#X obj 220 190 t b;
#X obj 126 407 + 60;
#X obj 556 305 outlet;
#X obj 79 184 loadbang;
#X obj 397 124 pipe 5000;
#X obj 126 378 * 500;
#X obj 397 23 r TFch0204Norm;
#X msg 277 138 2;
#X msg 220 138 1;
#X obj 220 163 change;
#X obj 397 187 + 1;
#X text 534 319 trigger new window;
#X obj 46 407 + 50;
#X obj 248 191 s state0102sends12;
#X obj 397 163 * 10;
#X text 180 94 frequency of state change;
#X text 395 230 formant;
#X text 40 491 send out pulsar rates;
#X floatatom 168 78 5 0 0 0 - - -;
#X obj 220 113 moses 0.05;
#X text 248 27 was 0102!!!;
#X obj 220 53 r TFch0204Norm;
#X connect 0 0 7 0;
#X connect 1 0 0 0;
#X connect 1 1 0 1;
#X connect 3 0 1 0;
#X connect 5 0 21 0;
#X connect 6 0 5 0;
#X connect 6 1 5 1;
#X connect 7 0 29 0;
#X connect 8 0 9 0;
#X connect 9 0 3 0;
#X connect 10 0 11 0;
#X connect 11 0 16 0;
#X connect 12 0 9 1;
#X connect 13 0 11 1;
#X connect 14 0 22 0;
#X connect 15 0 14 0;
#X connect 15 1 14 1;
#X connect 16 0 15 0;
#X connect 17 0 13 0;
#X connect 17 0 12 0;
#X connect 17 0 19 0;
#X connect 18 0 2 0;
#X connect 20 0 12 0;
#X connect 21 0 31 0;
#X connect 22 0 18 0;
#X connect 23 0 6 0;
#X connect 24 0 26 0;
#X connect 25 0 26 0;
#X connect 26 0 17 0;
#X connect 26 0 30 0;
#X connect 27 0 4 0;
#X connect 29 0 2 0;
#X connect 31 0 27 0;
#X connect 36 0 25 0;
#X connect 36 1 24 0;
#X connect 38 0 35 0;
#X connect 38 0 36 0;
#X restore 37 118 pd PulseStateFast;
#X obj 37 193 spigot;
#X obj 86 193 spigot;
#X obj 136 193 spigot;
#X msg 186 108 1;
#X msg 217 108 0;
#X obj 186 140 change;
#N canvas 241 323 738 523 PulseStateSlow 0;
#X obj 35 92 sig~;
#X obj 36 125 *~ 4096;
#X obj 36 194 *~;
#X obj 37 224 tabread4~ expDec;
#X msg 35 58 1;
#X obj 37 290 outlet~;
#X obj 195 127 f \$1;
#X msg 195 152 0 \, 1 \$1 0;
#X obj 195 177 vline~;
#X obj 294 394 outlet;
#X obj 196 394 s \$0-grainTrig;
#X obj 196 296 snapshot~;
#X obj 232 261 metro 10;
#X obj 232 233 loadbang;
#X obj 35 25 loadbang;
#X obj 195 4 r \$0-grainTrig;
#X obj 196 321 == 1;
#X obj 196 369 delay 500;
#X obj 196 345 sel 0;
#X floatatom 135 310 5 0 0 0 - - -;
#X obj 132 41 loadbang;
#X obj 335 7 r TFch0102Norm;
#X obj 335 52 *;
#X obj 335 28 t f f;
#X obj 335 94 + 50;
#X obj 348 186 r TFch0104Norm;
#X obj 333 325 f;
#X obj 195 44 t b b;
#X text 366 325 delay time;
#X obj 335 74 * 2000;
#X text 420 117 trigger pulse trains;
#X obj 114 407 bng 15 250 50 0 empty empty empty 17 7 0 10 -262144
-1 -1;
#X text 417 287 original was * 2000;
#X floatatom 437 311 5 0 0 0 - - -;
#X obj 349 289 * 10000;
#X obj 348 257 *;
#X obj 348 233 t f f;
#X connect 0 0 1 0;
#X connect 1 0 2 0;
#X connect 2 0 3 0;
#X connect 3 0 5 0;
#X connect 4 0 0 0;
#X connect 6 0 7 0;
#X connect 7 0 8 0;
#X connect 8 0 2 1;
#X connect 8 0 11 0;
#X connect 11 0 16 0;
#X connect 11 0 19 0;
#X connect 12 0 11 0;
#X connect 13 0 12 0;
#X connect 14 0 4 0;
#X connect 15 0 27 0;
#X connect 16 0 18 0;
#X connect 17 0 10 0;
#X connect 17 0 9 0;
#X connect 17 0 31 0;
#X connect 18 0 17 0;
#X connect 20 0 6 0;
#X connect 21 0 23 0;
#X connect 22 0 29 0;
#X connect 23 0 22 0;
#X connect 23 1 22 1;
#X connect 24 0 6 1;
#X connect 25 0 36 0;
#X connect 26 0 17 1;
#X connect 27 0 6 0;
#X connect 27 1 26 0;
#X connect 29 0 24 0;
#X connect 34 0 26 1;
#X connect 34 0 33 0;
#X connect 35 0 34 0;
#X connect 36 0 35 0;
#X connect 36 1 35 1;
#X restore 451 132 pd PulseStateSlow;
#X obj 210 285 f;
#X obj 255 285 f;
#X obj 451 202 delwrite~ TFtest 100;
#X obj 451 222 delread~ TFtest 100;
#X obj 37 291 outlet;
#X obj 86 291 outlet;
#X obj 136 291 outlet;
#X obj 210 381 outlet;
#X obj 255 381 outlet;
#X obj 452 291 outlet~;
#X obj 210 323 spigot;
#X obj 255 323 spigot;
#X msg 248 108 0;
#X msg 276 108 1;
#X obj 248 140 change;
#X obj 300 323 spigot;
#N canvas 1062 335 450 300 slowRates 0;
#X obj 27 231 outlet;
#X obj 128 231 outlet;
#X obj 27 31 r TFch0102Norm;
#X obj 128 31 r TFch0103Norm;
#X obj 27 132 + 10;
#X obj 128 82 +;
#X obj 27 55 t f f;
#X obj 27 75 *;
#X obj 27 107 * 100;
#X obj 128 57 * 5;
#X connect 2 0 6 0;
#X connect 3 0 9 0;
#X connect 4 0 0 0;
#X connect 5 0 1 0;
#X connect 6 0 7 0;
#X connect 6 1 7 1;
#X connect 7 0 8 0;
#X connect 8 0 4 0;
#X connect 9 0 5 0;
#X restore 225 218 pd slowRates;
#X obj 574 202 s state03TrainTrig;
#X obj 308 179 s state03oneZero;
#X obj 86 252 f;
#X text 152 27 split input and select state;
#X text 42 97 quick states;
#X text 302 349 trigger updates on slow states \, update parameters
with new pulse train;
#X obj 145 383 t b;
#X obj 146 417 s noClicker;
#X floatatom 72 56 5 0 0 0 - - -;
#X obj 187 77 moses 0.2;
#X floatatom 361 45 5 0 0 0 - - -;
#X text 267 77 original 0.5;
#X obj 192 47 r TFch0203Norm;
#X connect 0 0 1 0;
#X connect 0 1 2 0;
#X connect 0 1 27 1;
#X connect 0 2 3 0;
#X connect 0 2 27 0;
#X connect 1 0 12 0;
#X connect 3 0 14 0;
#X connect 4 0 6 0;
#X connect 5 0 6 0;
#X connect 6 0 3 1;
#X connect 6 0 2 1;
#X connect 6 0 1 1;
#X connect 6 0 31 0;
#X connect 7 0 10 0;
#X connect 7 1 8 0;
#X connect 7 1 9 0;
#X connect 7 1 23 0;
#X connect 7 1 25 0;
#X connect 7 1 31 0;
#X connect 8 0 18 0;
#X connect 9 0 19 0;
#X connect 11 0 17 0;
#X connect 18 0 15 0;
#X connect 19 0 16 0;
#X connect 20 0 22 0;
#X connect 21 0 22 0;
#X connect 22 0 18 1;
#X connect 22 0 19 1;
#X connect 22 0 23 1;
#X connect 22 0 26 0;
#X connect 23 0 14 0;
#X connect 24 0 8 1;
#X connect 24 1 9 1;
#X connect 27 0 13 0;
#X connect 31 0 32 0;
#X connect 34 0 4 0;
#X connect 34 0 20 0;
#X connect 34 1 5 0;
#X connect 34 1 21 0;
#X connect 35 0 34 0;
#X connect 37 0 33 0;
#X connect 37 0 34 0;
#X restore 72 193 pd PulseStateSelector;
#X obj 178 546 *~;
#N canvas 865 644 450 476 muteTracks 0;
#X obj 74 10 r TFch0203Norm;
#X msg 188 76 1;
#X msg 74 76 0;
#X msg 44 76 1;
#X msg 156 76 0;
#X msg 25 182 0 \, 1 30 0;
#X msg 45 204 1 \, 0 30 0;
#X obj 45 243 vline~;
#X obj 137 243 vline~;
#X obj 44 116 change;
#X obj 25 140 sel 1;
#X obj 44 160 sel 0;
#X msg 137 182 0 \, 1 30 0;
#X msg 156 204 1 \, 0 30 0;
#X obj 156 116 change;
#X obj 137 140 sel 1;
#X obj 156 160 sel 0;
#X obj 45 294 outlet~;
#X obj 136 294 outlet~;
#X obj 74 33 moses 0.2;
#X connect 0 0 19 0;
#X connect 1 0 14 0;
#X connect 2 0 9 0;
#X connect 3 0 9 0;
#X connect 4 0 14 0;
#X connect 5 0 7 0;
#X connect 6 0 7 0;
#X connect 7 0 17 0;
#X connect 8 0 18 0;
#X connect 9 0 10 0;
#X connect 9 0 11 0;
#X connect 10 0 5 0;
#X connect 11 0 6 0;
#X connect 12 0 8 0;
#X connect 13 0 8 0;
#X connect 14 0 15 0;
#X connect 14 0 16 0;
#X connect 15 0 12 0;
#X connect 16 0 13 0;
#X connect 19 0 2 0;
#X connect 19 0 1 0;
#X connect 19 1 4 0;
#X connect 19 1 3 0;
#X restore 69 502 pd muteTracks;
#N canvas 551 260 691 345 lateReverb 0;
#X obj 114 47 inlet~;
#X obj 115 191 rev3~ 80 90 3000 20;
#X obj 115 251 outlet~;
#X obj 168 251 outlet~;
#X text 246 124 < A predelay added to make 'room' for the binaural
early reflections;
#X obj 114 82 *~ 0.4;
#X text 166 82 < Late reverb level;
#X text 170 45 from 3dception help patch example;
#X obj 115 122 delwrite~ TFpredel01 80;
#X obj 115 144 delread~ TFpredel01 50;
#X connect 0 0 5 0;
#X connect 1 0 2 0;
#X connect 1 1 3 0;
#X connect 5 0 8 0;
#X connect 9 0 1 0;
#X restore 177 607 pd lateReverb;
#X msg 121 318 0 10 0 \, 1 10 110;
#X obj 121 344 vline~;
#X obj 31 399 *~;
#N canvas 3 317 871 540 chuaOscillators 0;
#N canvas 569 307 908 306 scaleOutputs----------------------------
0;
#X obj 4 94 + 2.28;
#X obj 4 114 / 4.56;
#X obj 4 136 clip 0 1;
#X obj 4 163 s TFch0101Norm;
#X obj 107 136 clip 0 1;
#X obj 107 94 + 0.405;
#X obj 107 114 / 0.81;
#X obj 211 136 clip 0 1;
#X obj 211 94 + 3.61;
#X obj 211 114 / 7.18;
#X obj 315 136 clip 0 1;
#X obj 315 94 + 2.06;
#X obj 444 94 + 2.28;
#X obj 444 114 / 4.56;
#X obj 444 136 clip 0 1;
#X obj 547 136 clip 0 1;
#X obj 547 94 + 0.405;
#X obj 547 114 / 0.81;
#X obj 651 138 clip 0 1;
#X obj 651 94 + 3.61;
#X obj 651 114 / 7.18;
#X obj 755 136 clip 0 1;
#X obj 755 94 + 2.06;
#X obj 107 163 s TFch0102Norm;
#X obj 211 163 s TFch0103Norm;
#X obj 315 163 s TFch0104Norm;
#X obj 444 163 s TFch0201Norm;
#X obj 547 163 s TFch0202Norm;
#X obj 651 163 s TFch0203Norm;
#X obj 755 163 s TFch0204Norm;
#X obj 315 114 / 4.12;
#X obj 755 114 / 4.12;
#X obj 4 57 inlet;
#X obj 107 57 inlet;
#X obj 211 57 inlet;
#X obj 315 57 inlet;
#X obj 444 57 inlet;
#X obj 547 57 inlet;
#X obj 651 57 inlet;
#X obj 755 57 inlet;
#X connect 0 0 1 0;
#X connect 1 0 2 0;
#X connect 2 0 3 0;
#X connect 4 0 23 0;
#X connect 5 0 6 0;
#X connect 6 0 4 0;
#X connect 7 0 24 0;
#X connect 8 0 9 0;
#X connect 9 0 7 0;
#X connect 10 0 25 0;
#X connect 11 0 30 0;
#X connect 12 0 13 0;
#X connect 13 0 14 0;
#X connect 14 0 26 0;
#X connect 15 0 27 0;
#X connect 16 0 17 0;
#X connect 17 0 15 0;
#X connect 18 0 28 0;
#X connect 19 0 20 0;
#X connect 20 0 18 0;
#X connect 21 0 29 0;
#X connect 22 0 31 0;
#X connect 30 0 10 0;
#X connect 31 0 21 0;
#X connect 32 0 0 0;
#X connect 33 0 5 0;
#X connect 34 0 8 0;
#X connect 35 0 11 0;
#X connect 36 0 12 0;
#X connect 37 0 16 0;
#X connect 38 0 19 0;
#X connect 39 0 22 0;
#X restore 231 316 pd scaleOutputs----------------------------;
#X obj 324 163 * 0.01;
#X obj 324 183 + 0.01;
#X obj 324 138 r TFch0204Norm;
#X obj 292 63 r TFch0201Norm;
#X obj 292 85 pipe 150;
#X obj 292 106 + 25;
#X obj 423 65 r TFch0101Norm;
#X obj 423 91 pipe 500;
#X obj 423 115 + 15;
#X obj 440 171 + 25;
#X obj 201 89 + 15;
#X text 218 26 Modulate chua oscillators by each other and accelerometer
input;
#X obj 201 63 r TFch0203Norm;
#X obj 440 143 r TFch0103Norm;
#X obj 231 244 atc-chuaMult;
#X msg 540 192 0.001;
#X obj 540 143 loadbang;
#X obj 423 244 atc-chuaMult;
#X obj 540 168 delay 10;
#X obj 697 67 adc~;
#X obj 762 117 route 1;
#X obj 762 137 unpack;
#X obj 795 160 + 15;
#X obj 697 117 route 2;
#X obj 697 139 unpack;
#X obj 697 163 + 15;
#X obj 697 87 fiddle~ 1024 1 20 3;
#X connect 1 0 2 0;
#X connect 2 0 15 4;
#X connect 3 0 1 0;
#X connect 4 0 5 0;
#X connect 5 0 6 0;
#X connect 6 0 15 1;
#X connect 7 0 8 0;
#X connect 8 0 9 0;
#X connect 10 0 18 1;
#X connect 13 0 11 0;
#X connect 14 0 10 0;
#X connect 15 0 0 0;
#X connect 15 1 0 1;
#X connect 15 2 0 2;
#X connect 15 3 0 3;
#X connect 16 0 18 4;
#X connect 17 0 19 0;
#X connect 18 0 0 4;
#X connect 18 1 0 5;
#X connect 18 2 0 6;
#X connect 18 3 0 7;
#X connect 19 0 16 0;
#X connect 20 0 27 0;
#X connect 21 0 22 0;
#X connect 22 1 23 0;
#X connect 23 0 18 0;
#X connect 24 0 25 0;
#X connect 25 1 26 0;
#X connect 26 0 15 0;
#X connect 27 4 21 0;
#X connect 27 4 24 0;
#X restore 30 85 pd chuaOscillators;
#X text 229 315 mute on window update - avoid clicks;
#X text 218 189 <- select states - update paramaters (from f objects)
with pulsar triggers (fast rates) and pulse train triggers (slow rates)
;
#X obj 31 777 outlet~;
#X obj 91 777 outlet~;
#X obj 374 573 inlet;
#X obj 374 695 vline~;
#X obj 439 601 sel 0;
#X obj 374 599 sel 1;
#X obj 91 750 *~;
#X obj 31 750 *~;
#X msg 374 647 1 100;
#X msg 439 647 0 100;
#N canvas 1054 282 360 430 panning 0;
#N canvas 847 233 482 449 pan 0;
#X obj 135 -1422 *~;
#X obj 36 -1422 *~;
#X obj 151 -1606 sig~;
#X obj 151 -1511 cos~;
#X obj 53 -1478 -~ 0.25;
#X obj 152 -1534 -~ 0.25;
#X obj 151 -1558 *~ 0.25;
#X obj 52 -1450 cos~;
#X obj 135 -1335 outlet~ rout;
#X obj 37 -1336 outlet~ lout;
#X obj 37 -1649 inlet~ signal;
#X obj 151 -1648 inlet pan amnt;
#X obj 289 -1647 inlet;
#X obj 134 -1386 *~;
#X obj 289 -1453 sig~;
#X obj 36 -1386 *~;
#X obj 289 -1433 lop~ 5;
#X obj 354 -1388 snapshot~;
#X obj 368 -1429 metro 1;
#X floatatom 316 -1306 12 0 0 0 - - -;
#X obj 382 -1474 bng 15 250 50 0 empty empty empty 17 7 0 10 -262144
-1 -1;
#X obj 152 -1583 lop~ 20;
#X connect 0 0 13 0;
#X connect 1 0 15 0;
#X connect 2 0 21 0;
#X connect 3 0 0 1;
#X connect 4 0 7 0;
#X connect 5 0 3 0;
#X connect 5 0 4 0;
#X connect 6 0 5 0;
#X connect 7 0 1 1;
#X connect 10 0 1 0;
#X connect 10 0 0 0;
#X connect 11 0 2 0;
#X connect 12 0 14 0;
#X connect 13 0 8 0;
#X connect 14 0 16 0;
#X connect 15 0 9 0;
#X connect 16 0 13 1;
#X connect 16 0 15 1;
#X connect 16 0 17 0;
#X connect 17 0 19 0;
#X connect 18 0 17 0;
#X connect 20 0 18 0;
#X connect 21 0 6 0;
#X restore 28 217 pd pan;
#X obj 29 22 inlet~;
#X obj 61 161 * 2;
#X obj 27 292 outlet~;
#X obj 78 292 outlet~;
#X obj 44 55 r TFch0101Norm;
#X obj 61 129 r TFch0104Norm;
#X connect 0 0 3 0;
#X connect 0 1 4 0;
#X connect 1 0 0 0;
#X connect 2 0 0 2;
#X connect 5 0 0 1;
#X connect 6 0 2 0;
#X restore 32 607 pd panning;
#X obj 230 263 r noClicker;
#X obj 264 298 bng 15 250 50 0 empty empty empty 17 7 0 10 -262144
-1 -1;
#X text 162 499 <- stop the annoying extendedness;
#N canvas 1120 303 450 300 filter 1;
#X obj 59 24 inlet~;
#X obj 66 120 vcf~;
#X floatatom 83 67 5 0 0 0 - - -;
#X floatatom 126 98 5 0 0 0 - - -;
#X obj 66 242 outlet~;
#X obj 280 23 r TFch0202Norm;
#X obj 272 72 + 1;
#X obj 178 63 sig~;
#X obj 193 87 lop~ 2;
#X obj 170 9 r TFch0204Norm;
#X obj 144 142 r TFch0101Norm;
#X obj 144 169 * 500;
#X obj 283 119 * 3;
#X obj 174 37 * 5000;
#X connect 0 0 1 0;
#X connect 1 0 4 0;
#X connect 3 0 1 2;
#X connect 5 0 6 0;
#X connect 6 0 12 0;
#X connect 7 0 8 0;
#X connect 8 0 1 1;
#X connect 9 0 13 0;
#X connect 10 0 11 0;
#X connect 12 0 3 0;
#X connect 13 0 2 0;
#X connect 13 0 7 0;
#X restore 31 438 pd filter;
#X obj 32 645 *~ 1;
#X obj 90 645 *~ 1;
#X obj 177 645 *~ 0.7;
#X obj 252 645 *~ 0.7;
#X connect 0 0 2 0;
#X connect 0 1 2 0;
#X connect 1 0 3 0;
#X connect 1 0 11 0;
#X connect 2 0 1 0;
#X connect 3 0 6 0;
#X connect 4 0 8 0;
#X connect 4 0 25 0;
#X connect 5 0 1 3;
#X connect 5 1 1 2;
#X connect 5 2 1 1;
#X connect 5 2 9 0;
#X connect 5 3 1 3;
#X connect 5 4 1 2;
#X connect 5 5 3 1;
#X connect 6 0 8 0;
#X connect 6 0 25 0;
#X connect 7 0 6 1;
#X connect 7 1 4 1;
#X connect 8 0 32 0;
#X connect 8 1 33 0;
#X connect 9 0 10 0;
#X connect 10 0 11 1;
#X connect 11 0 29 0;
#X connect 17 0 20 0;
#X connect 17 0 19 0;
#X connect 18 0 21 1;
#X connect 18 0 22 1;
#X connect 19 0 24 0;
#X connect 20 0 23 0;
#X connect 21 0 16 0;
#X connect 22 0 15 0;
#X connect 23 0 18 0;
#X connect 24 0 18 0;
#X connect 25 0 30 0;
#X connect 25 1 31 0;
#X connect 26 0 9 0;
#X connect 26 0 27 0;
#X connect 29 0 4 0;
#X connect 30 0 22 0;
#X connect 31 0 21 0;
#X connect 32 0 22 0;
#X connect 33 0 21 0;
