#N canvas 1 77 734 801 10;
#N canvas 87 154 1374 526 Fourses 0;
#N canvas 1007 119 440 333 fourse01---------------------- 0;
#X obj 35 197 atc-horseOsc-feedbackAtten;
#X obj 110 243 delwrite~ TSosca2 1;
#X obj 110 223 delwrite~ TSosca1 1;
#X obj 122 94 delread~ TSoscb1 1;
#X obj 34 293 outlet~;
#X obj 34 13 inlet~ upSpeed;
#X obj 56 33 inlet~ downSpeed;
#X obj 78 53 inlet~ upLimit;
#X obj 100 73 inlet~ downLimit;
#X obj 165 137 inlet~ feedback01;
#X obj 188 159 inlet~ feedback02;
#X text 276 142 -5 -> +5;
#X obj 143 115 delread~ TSoscb2 1;
#X connect 0 0 4 0;
#X connect 0 1 2 0;
#X connect 0 2 1 0;
#X connect 3 0 0 4;
#X connect 5 0 0 0;
#X connect 6 0 0 1;
#X connect 7 0 0 2;
#X connect 8 0 0 3;
#X connect 9 0 0 6;
#X connect 10 0 0 7;
#X connect 12 0 0 5;
#X restore 13 371 pd fourse01----------------------;
#N canvas 100 118 440 333 fourse02---------------------- 0;
#X obj 34 293 outlet~;
#X obj 34 13 inlet~ upSpeed;
#X obj 56 33 inlet~ downSpeed;
#X obj 78 53 inlet~ upLimit;
#X obj 100 73 inlet~ downLimit;
#X obj 165 137 inlet~ feedback01;
#X obj 188 159 inlet~ feedback02;
#X text 276 142 -5 -> +5;
#X obj 110 223 delwrite~ TSoscb1 1;
#X obj 110 243 delwrite~ TSoscb2 1;
#X obj 143 115 delread~ TSosca2 1;
#X obj 122 94 delread~ TSosca1 1;
#X obj 35 197 atc-horseOsc-feedbackAtten;
#X connect 1 0 12 0;
#X connect 2 0 12 1;
#X connect 3 0 12 2;
#X connect 4 0 12 3;
#X connect 5 0 12 6;
#X connect 6 0 12 7;
#X connect 10 0 12 5;
#X connect 11 0 12 4;
#X connect 12 0 0 0;
#X connect 12 1 8 0;
#X connect 12 2 9 0;
#X restore 313 371 pd fourse02----------------------;
#X obj 13 400 outlet~;
#X obj 313 400 outlet~;
#X obj 67 320 r sr;
#X obj 52 342 /;
#X obj 52 299 * -1;
#X obj 13 342 /;
#X obj 367 320 r sr;
#X obj 352 342 /;
#X obj 352 299 * -1;
#X obj 313 342 /;
#X obj 13 149 * 4000;
#X obj 13 169 + 50;
#X obj 57 171 * 4000;
#X obj 57 191 + 50;
#X obj 57 149 r TSch0202Norm;
#X obj 102 172 r TSch0102Norm;
#X obj 102 194 * 10;
#X obj 102 215 - 5;
#X obj 133 216 * 10;
#X obj 133 237 - 5;
#X obj 165 237 * 10;
#X obj 165 258 - 5;
#X obj 198 258 * 10;
#X obj 198 279 - 5;
#X obj 165 216 r TSch0104Norm;
#X obj 198 237 r TSch0203Norm;
#X obj 303 149 * 4000;
#X obj 303 169 + 50;
#X obj 347 171 * 4000;
#X obj 347 191 + 50;
#X obj 392 194 * 10;
#X obj 392 215 - 5;
#X obj 423 216 * 10;
#X obj 423 237 - 5;
#X obj 455 237 * 10;
#X obj 455 258 - 5;
#X obj 488 258 * 10;
#X obj 488 279 - 5;
#X obj 303 127 r TSch0104Norm;
#X obj 392 172 r TSch0101Norm;
#X obj 423 194 r TSch0202Norm;
#X obj 455 216 r TSch0103Norm;
#X obj 488 237 r TSch0204Norm;
#X obj 13 127 r TSch0101Norm;
#X text 138 80 Modulate Fourse osillators with each other's output
\, chua oscillators and accelerometer input;
#X obj 347 149 r TSch0102Norm;
#X obj 133 194 r TSch0204Norm;
#X connect 0 0 2 0;
#X connect 1 0 3 0;
#X connect 4 0 5 1;
#X connect 4 0 7 1;
#X connect 5 0 0 1;
#X connect 6 0 5 0;
#X connect 7 0 0 0;
#X connect 8 0 9 1;
#X connect 8 0 11 1;
#X connect 9 0 1 1;
#X connect 10 0 9 0;
#X connect 11 0 1 0;
#X connect 12 0 13 0;
#X connect 13 0 7 0;
#X connect 14 0 15 0;
#X connect 15 0 6 0;
#X connect 16 0 14 0;
#X connect 17 0 18 0;
#X connect 18 0 19 0;
#X connect 19 0 0 2;
#X connect 20 0 21 0;
#X connect 21 0 0 3;
#X connect 22 0 23 0;
#X connect 23 0 0 4;
#X connect 24 0 25 0;
#X connect 25 0 0 5;
#X connect 26 0 22 0;
#X connect 27 0 24 0;
#X connect 28 0 29 0;
#X connect 29 0 11 0;
#X connect 30 0 31 0;
#X connect 31 0 10 0;
#X connect 32 0 33 0;
#X connect 33 0 1 2;
#X connect 34 0 35 0;
#X connect 35 0 1 3;
#X connect 36 0 37 0;
#X connect 37 0 1 4;
#X connect 38 0 39 0;
#X connect 39 0 1 5;
#X connect 40 0 28 0;
#X connect 41 0 32 0;
#X connect 42 0 34 0;
#X connect 43 0 36 0;
#X connect 44 0 38 0;
#X connect 45 0 12 0;
#X connect 47 0 30 0;
#X connect 48 0 20 0;
#X restore 160 61 pd Fourses;
#X obj 160 89 *~ 0.2;
#X obj 218 89 *~ 0.2;
#N canvas 500 121 1017 737 pulseGenerator02 0;
#X obj 32 20 inlet~ forDynEnv;
#X obj 429 20 inlet triggerRate;
#X obj 288 20 inlet formant;
#X obj 288 323 outlet~;
#X obj 510 579 == 4;
#N canvas 111 396 450 300 triggerRate 0;
#X obj 58 40 loadbang;
#X obj 58 90 metro;
#X obj 115 40 inlet rate;
#X obj 58 120 f \$1;
#X msg 58 145 0 \, 1 \$1 0;
#X obj 58 170 vline~;
#X obj 58 200 outlet~;
#X obj 115 67 t f f;
#X obj 291 140 outlet;
#X obj 213 39 inlet stop metro;
#X text 67 11 set rate to trigger pulsar triggers;
#X connect 0 0 1 0;
#X connect 1 0 3 0;
#X connect 1 0 8 0;
#X connect 2 0 7 0;
#X connect 3 0 4 0;
#X connect 4 0 5 0;
#X connect 5 0 6 0;
#X connect 7 0 1 1;
#X connect 7 1 3 1;
#X connect 9 0 1 0;
#X restore 429 259 pd triggerRate;
#X obj 510 364 f 0;
#X obj 540 364 + 1;
#X msg 525 335 0;
#X msg 510 219 1;
#X obj 510 634 t b;
#X obj 510 609 sel 1;
#X msg 471 219 0;
#X obj 510 192 del 500;
#X obj 83 97 del 500;
#X text 478 44 1 = start metro \, 0 = reset counter;
#X obj 549 169 + 200;
#X obj 546 500 * 10;
#X obj 546 520 int;
#X obj 531 554 f;
#X obj 564 112 * 10000;
#X obj 549 137 f;
#N canvas 694 408 450 300 dynEnv 0;
#N canvas 0 0 450 300 (subpatch) 0;
#X array dynWindow02 4096 float 2;
#X coords 0 1 4096 -1 200 140 1 0 0;
#X restore -51 -35 graph;
#X obj 184 -33 inlet~ forWindow;
#X obj 184 -2 *~ 0.1;
#X obj 293 -33 inlet bang;
#X obj 293 -3 delay 100;
#X msg 183 61 \; dynWindow02 normalize;
#X obj 183 30 tabwrite~ dynWindow02;
#X text -20 124 set window from audio input;
#X connect 1 0 2 0;
#X connect 2 0 6 0;
#X connect 3 0 4 0;
#X connect 3 0 6 0;
#X connect 4 0 5 0;
#X restore 32 126 pd dynEnv;
#N canvas 860 517 450 300 pulseVoice 0;
#X obj 49 62 sig~;
#X obj 50 95 *~ 4096;
#X obj 49 30 inlet formant;
#X obj 50 124 *~;
#X obj 140 30 inlet~ rate;
#X obj 50 234 *~;
#X obj 50 264 outlet~;
#X obj 190 183 tabread4~ expDec;
#X obj 50 183 tabread4~ dynWindow02;
#X connect 0 0 1 0;
#X connect 1 0 3 0;
#X connect 2 0 0 0;
#X connect 3 0 7 0;
#X connect 3 0 8 0;
#X connect 4 0 3 1;
#X connect 5 0 6 0;
#X connect 7 0 5 1;
#X connect 8 0 5 0;
#X restore 288 289 pd pulseVoice;
#X obj 546 480 r TSch0201Norm;
#X obj 564 92 r TSch0104Norm;
#X obj 83 69 r pulseTrigger02;
#X obj 549 69 r pulseTrigger02;
#X obj 525 309 r pulseTrigger02;
#X obj 531 457 r pulseTrigger02;
#X obj 510 666 s pulseTrigger02;
#X obj 528 399 s counter02;
#X obj 552 219 s pulseTrigger02Del;
#X text 574 519 set number of pulsars;
#X text 660 66 update parameters for next pulse train;
#X text 579 134 delay trigger for next pulse train;
#X text 572 363 count number of pulsars;
#X connect 0 0 22 0;
#X connect 1 0 5 0;
#X connect 2 0 23 0;
#X connect 4 0 11 0;
#X connect 5 0 23 1;
#X connect 5 1 6 0;
#X connect 6 0 7 0;
#X connect 6 0 4 0;
#X connect 6 0 31 0;
#X connect 7 0 6 1;
#X connect 8 0 6 1;
#X connect 9 0 5 1;
#X connect 10 0 30 0;
#X connect 11 0 10 0;
#X connect 12 0 5 1;
#X connect 13 0 9 0;
#X connect 13 0 32 0;
#X connect 14 0 22 1;
#X connect 16 0 13 1;
#X connect 17 0 18 0;
#X connect 18 0 19 1;
#X connect 19 0 4 1;
#X connect 20 0 21 1;
#X connect 21 0 16 0;
#X connect 23 0 3 0;
#X connect 24 0 17 0;
#X connect 25 0 20 0;
#X connect 26 0 14 0;
#X connect 27 0 21 0;
#X connect 27 0 13 0;
#X connect 27 0 12 0;
#X connect 28 0 8 0;
#X connect 29 0 19 0;
#X restore 320 220 pd pulseGenerator02;
#N canvas 124 114 1017 737 pulseGenerator01 0;
#X obj 32 20 inlet~ forDynEnv;
#X obj 429 20 inlet triggerRate;
#X obj 288 20 inlet formant;
#X obj 288 323 outlet~;
#X obj 510 569 == 4;
#N canvas 103 392 450 300 triggerRate 0;
#X obj 58 30 loadbang;
#X obj 58 80 metro;
#X obj 115 30 inlet rate;
#X obj 58 110 f \$1;
#X msg 58 135 0 \, 1 \$1 0;
#X obj 58 160 vline~;
#X obj 58 190 outlet~;
#X obj 115 57 t f f;
#X obj 291 130 outlet;
#X obj 213 29 inlet stop metro;
#X text 77 11 set rate to trigger pulsar triggers;
#X connect 0 0 1 0;
#X connect 1 0 3 0;
#X connect 1 0 8 0;
#X connect 2 0 7 0;
#X connect 3 0 4 0;
#X connect 4 0 5 0;
#X connect 5 0 6 0;
#X connect 7 0 1 1;
#X connect 7 1 3 1;
#X connect 9 0 1 0;
#X restore 429 259 pd triggerRate;
#X obj 510 364 f 0;
#X obj 540 364 + 1;
#X msg 525 335 0;
#X msg 510 219 1;
#X obj 510 624 t b;
#X obj 510 599 sel 1;
#X msg 471 219 0;
#X obj 510 192 del 500;
#X obj 83 97 del 500;
#X obj 549 169 + 200;
#X obj 546 490 * 10;
#X obj 546 510 int;
#X obj 531 544 f;
#X obj 564 92 r TSch0102Norm;
#X obj 564 112 * 10000;
#X obj 549 137 f;
#N canvas 694 408 450 300 dynEnv 0;
#N canvas 0 0 450 300 (subpatch) 0;
#X array dynWindow01 4096 float 2;
#X coords 0 1 4096 -1 200 140 1 0 0;
#X restore -51 -35 graph;
#X obj 184 -33 inlet~ forWindow;
#X obj 184 -2 *~ 0.1;
#X obj 293 -33 inlet bang;
#X obj 293 -3 delay 100;
#X obj 183 30 tabwrite~ dynWindow01;
#X msg 183 61 \; dynWindow01 normalize;
#X text -10 134 set window from audio input;
#X connect 1 0 2 0;
#X connect 2 0 5 0;
#X connect 3 0 4 0;
#X connect 3 0 5 0;
#X connect 4 0 6 0;
#X restore 32 126 pd dynEnv;
#N canvas 787 322 450 300 pulseVoice 0;
#X obj 49 62 sig~;
#X obj 50 95 *~ 4096;
#X obj 49 30 inlet formant;
#X obj 50 124 *~;
#X obj 140 30 inlet~ rate;
#X obj 50 234 *~;
#X obj 50 264 outlet~;
#X obj 190 183 tabread4~ expDec;
#X obj 50 183 tabread4~ dynWindow01;
#X connect 0 0 1 0;
#X connect 1 0 3 0;
#X connect 2 0 0 0;
#X connect 3 0 7 0;
#X connect 3 0 8 0;
#X connect 4 0 3 1;
#X connect 5 0 6 0;
#X connect 7 0 5 1;
#X connect 8 0 5 0;
#X restore 288 289 pd pulseVoice;
#X obj 510 656 s pulseTrigger01;
#X obj 531 447 r pulseTrigger01;
#X obj 525 309 r pulseTrigger01;
#X obj 549 69 r pulseTrigger01;
#X obj 83 69 r pulseTrigger01;
#X obj 529 399 s counter01;
#X obj 546 470 r TSch0203Norm;
#X obj 555 220 s pulseTrigger01Del;
#X text 508 44 1 = start metro \, 0 = reset counter;
#X text 580 509 set number of pulsars;
#X text 669 68 update parameters for next pulse train;
#X text 583 138 delay trigger for next pulse train;
#X text 588 359 count number of pulsars;
#X connect 0 0 22 0;
#X connect 1 0 5 0;
#X connect 2 0 23 0;
#X connect 4 0 11 0;
#X connect 5 0 23 1;
#X connect 5 1 6 0;
#X connect 6 0 7 0;
#X connect 6 0 4 0;
#X connect 6 0 29 0;
#X connect 7 0 6 1;
#X connect 8 0 6 1;
#X connect 9 0 5 1;
#X connect 10 0 24 0;
#X connect 11 0 10 0;
#X connect 12 0 5 1;
#X connect 13 0 9 0;
#X connect 13 0 31 0;
#X connect 14 0 22 1;
#X connect 15 0 13 1;
#X connect 16 0 17 0;
#X connect 17 0 18 1;
#X connect 18 0 4 1;
#X connect 19 0 20 0;
#X connect 20 0 21 1;
#X connect 21 0 15 0;
#X connect 23 0 3 0;
#X connect 25 0 18 0;
#X connect 26 0 8 0;
#X connect 27 0 21 0;
#X connect 27 0 13 0;
#X connect 27 0 12 0;
#X connect 28 0 14 0;
#X connect 30 0 16 0;
#X restore 160 220 pd pulseGenerator01;
#N canvas 1084 411 328 215 pulseParams02 0;
#X obj 35 75 f;
#X obj 146 109 outlet;
#X obj 35 109 outlet;
#N canvas 1139 183 450 300 slowRates 0;
#X obj 27 231 outlet;
#X obj 128 231 outlet;
#X obj 27 55 t f f;
#X obj 27 75 *;
#X obj 128 31 r TSch0103Norm;
#X obj 27 107 * 500;
#X obj 128 57 * 3;
#X obj 128 82 + 1;
#X obj 27 31 r TSch0102Norm;
#X obj 27 132 + 40;
#X connect 2 0 3 0;
#X connect 2 1 3 1;
#X connect 3 0 5 0;
#X connect 4 0 6 0;
#X connect 5 0 9 0;
#X connect 6 0 7 0;
#X connect 7 0 1 0;
#X connect 8 0 2 0;
#X connect 9 0 0 0;
#X restore 146 47 pd slowRates;
#X obj 35 47 r pulseTrigger02;
#X connect 0 0 2 0;
#X connect 3 0 1 0;
#X connect 3 1 0 1;
#X connect 4 0 0 0;
#X restore 375 190 pd pulseParams02;
#N canvas 727 405 328 215 pulseParams01 0;
#X obj 35 75 f;
#X obj 146 109 outlet;
#X obj 35 109 outlet;
#N canvas 1137 182 450 300 slowRates 0;
#X obj 27 231 outlet;
#X obj 128 231 outlet;
#X obj 27 55 t f f;
#X obj 27 75 *;
#X obj 27 31 r TSch0202Norm;
#X obj 128 31 r TSch0103Norm;
#X obj 27 107 * 500;
#X obj 128 57 * 3;
#X obj 128 82 + 1;
#X obj 27 132 + 40;
#X text 174 84 scale outputs of chua oscillator;
#X connect 2 0 3 0;
#X connect 2 1 3 1;
#X connect 3 0 6 0;
#X connect 4 0 2 0;
#X connect 5 0 7 0;
#X connect 6 0 9 0;
#X connect 7 0 8 0;
#X connect 8 0 1 0;
#X connect 9 0 0 0;
#X restore 146 47 pd slowRates;
#X obj 35 47 r pulseTrigger01;
#X connect 0 0 2 0;
#X connect 3 0 1 0;
#X connect 3 1 0 1;
#X connect 4 0 0 0;
#X restore 215 190 pd pulseParams01;
#N canvas 825 273 360 430 panning01 0;
#X obj 17 282 outlet~;
#X obj 68 282 outlet~;
#X obj 19 23 inlet~;
#X obj 34 56 r TSch0201Norm;
#X obj 51 130 r TSch0104Norm;
#N canvas 855 237 482 449 pan 0;
#X obj 135 -1422 *~;
#X obj 36 -1422 *~;
#X obj 151 -1606 sig~;
#X obj 151 -1511 cos~;
#X obj 53 -1478 -~ 0.25;
#X obj 152 -1534 -~ 0.25;
#X obj 151 -1558 *~ 0.25;
#X obj 52 -1450 cos~;
#X obj 135 -1335 outlet~ rout;
#X obj 37 -1336 outlet~ lout;
#X obj 37 -1649 inlet~ signal;
#X obj 151 -1648 inlet pan amnt;
#X obj 289 -1647 inlet;
#X obj 134 -1386 *~;
#X obj 289 -1453 sig~;
#X obj 36 -1386 *~;
#X obj 152 -1583 lop~ 20;
#X obj 289 -1433 lop~ 5;
#X obj 354 -1388 snapshot~;
#X obj 368 -1429 metro 1;
#X floatatom 316 -1306 12 0 0 0 - - -;
#X obj 382 -1474 bng 15 250 50 0 empty empty empty 17 7 0 10 -262144
-1 -1;
#X connect 0 0 13 0;
#X connect 1 0 15 0;
#X connect 2 0 16 0;
#X connect 3 0 0 1;
#X connect 4 0 7 0;
#X connect 5 0 3 0;
#X connect 5 0 4 0;
#X connect 6 0 5 0;
#X connect 7 0 1 1;
#X connect 10 0 1 0;
#X connect 10 0 0 0;
#X connect 11 0 2 0;
#X connect 12 0 14 0;
#X connect 13 0 8 0;
#X connect 14 0 17 0;
#X connect 15 0 9 0;
#X connect 16 0 6 0;
#X connect 17 0 13 1;
#X connect 17 0 15 1;
#X connect 17 0 18 0;
#X connect 18 0 20 0;
#X connect 19 0 18 0;
#X connect 21 0 19 0;
#X restore 18 207 pd pan;
#X obj 34 101 * 0.4;
#X obj 51 162 * 2;
#X connect 2 0 5 0;
#X connect 3 0 6 0;
#X connect 4 0 7 0;
#X connect 5 0 0 0;
#X connect 5 1 1 0;
#X connect 6 0 5 1;
#X connect 7 0 5 2;
#X restore 160 271 pd panning01;
#N canvas 1024 80 360 430 panning02 0;
#X obj 19 23 inlet~;
#X obj 58 56 r TSch0202Norm;
#X obj 175 80 r TSch0103Norm;
#X text 84 22 set azimuth \, elevation \, and distance;
#X obj 18 262 outlet~;
#X obj 69 262 outlet~;
#N canvas 855 237 482 449 pan 0;
#X obj 135 -1422 *~;
#X obj 36 -1422 *~;
#X obj 151 -1606 sig~;
#X obj 151 -1511 cos~;
#X obj 53 -1478 -~ 0.25;
#X obj 152 -1534 -~ 0.25;
#X obj 151 -1558 *~ 0.25;
#X obj 52 -1450 cos~;
#X obj 135 -1335 outlet~ rout;
#X obj 37 -1336 outlet~ lout;
#X obj 37 -1649 inlet~ signal;
#X obj 151 -1648 inlet pan amnt;
#X obj 289 -1647 inlet;
#X obj 134 -1386 *~;
#X obj 289 -1453 sig~;
#X obj 36 -1386 *~;
#X obj 152 -1583 lop~ 20;
#X obj 289 -1433 lop~ 5;
#X obj 354 -1388 snapshot~;
#X obj 368 -1429 metro 1;
#X floatatom 316 -1306 12 0 0 0 - - -;
#X obj 382 -1474 bng 15 250 50 0 empty empty empty 17 7 0 10 -262144
-1 -1;
#X connect 0 0 13 0;
#X connect 1 0 15 0;
#X connect 2 0 16 0;
#X connect 3 0 0 1;
#X connect 4 0 7 0;
#X connect 5 0 3 0;
#X connect 5 0 4 0;
#X connect 6 0 5 0;
#X connect 7 0 1 1;
#X connect 10 0 1 0;
#X connect 10 0 0 0;
#X connect 11 0 2 0;
#X connect 12 0 14 0;
#X connect 13 0 8 0;
#X connect 14 0 17 0;
#X connect 15 0 9 0;
#X connect 16 0 6 0;
#X connect 17 0 13 1;
#X connect 17 0 15 1;
#X connect 17 0 18 0;
#X connect 18 0 20 0;
#X connect 19 0 18 0;
#X connect 21 0 19 0;
#X restore 19 187 pd pan;
#X obj 44 81 * 0.4;
#X obj 61 142 * 2;
#X obj 43 112 + 0.6;
#X connect 0 0 6 0;
#X connect 1 0 7 0;
#X connect 2 0 8 0;
#X connect 6 0 4 0;
#X connect 6 1 5 0;
#X connect 7 0 9 0;
#X connect 8 0 6 2;
#X connect 9 0 6 1;
#X restore 320 271 pd panning02;
#N canvas 541 255 691 345 lateReverb 0;
#X obj 114 47 inlet~;
#X obj 115 251 outlet~;
#X obj 168 251 outlet~;
#X text 246 124 < A predelay added to make 'room' for the binaural
early reflections;
#X text 166 82 < Late reverb level;
#X obj 115 122 delwrite~ predel01 80;
#X obj 115 144 delread~ predel01 50;
#X text 167 45 This from the 3Dception help patch;
#X obj 114 82 *~ 0.4;
#X obj 115 191 rev3~ 90 70 3000 20;
#X connect 0 0 8 0;
#X connect 6 0 9 0;
#X connect 8 0 5 0;
#X connect 9 0 1 0;
#X connect 9 1 2 0;
#X restore 434 272 pd lateReverb;
#N canvas 748 328 787 562 chuaOscillators 0;
#N canvas 98 117 921 514 chua01------- 0;
#X obj 49 394 f;
#X obj 156 394 f;
#X obj 263 393 f;
#X obj 370 393 f;
#X msg 242 117 -1.14286;
#X msg 302 117 -0.714286;
#X msg 370 117 1;
#X msg 180 117 0;
#X msg 63 117 15.49;
#X msg 124 117 25.96;
#X obj 460 292 t b b b b;
#X obj 460 223 loadbang;
#X obj 521 242 bng 15 250 50 0 empty empty empty 17 7 0 10 -262144
-1 -1;
#X obj 68 439 outlet;
#X obj 170 439 outlet;
#X obj 276 439 outlet;
#X obj 386 439 outlet;
#X obj 63 170 v alpha01;
#X obj 124 170 v beta01;
#X obj 180 170 v gamma01;
#X obj 242 170 v a01;
#X obj 302 170 v b01;
#X obj 370 170 v k01;
#X obj 423 170 v dt01;
#X obj 64 238 expr $f1 + k01 * (alpha01 * ($f2 - $f1 - $f4)) * dt01
\; $f2 + k01 * ($f1 - $f2 + $f3) * dt01 \; $f3 + k01 * (-beta01 * $f2
- gamma01 * $f3) * dt01 \; if ($f1>=1 \, b01*$f1+(a01-b01) \, if ($f1>=-1
\, a01*$f1 \, b01*$f1-(a01-b01)));
#X msg 85 354 1.1646;
#X msg 189 355 -0.097335;
#X msg 299 354 -0.90556;
#X obj 89 78 inlet alpha;
#X obj 169 78 inlet beta;
#X obj 439 78 inlet dt;
#X obj 111 322 loadbang;
#X obj 261 34 loadbang;
#X obj 64 208 r out11;
#X obj 171 209 r out12;
#X obj 278 208 r out13;
#X obj 385 208 r out14;
#X obj 370 417 s out14;
#X obj 263 417 s out13;
#X obj 156 417 s out12;
#X obj 49 417 s out11;
#X floatatom 511 380 5 0 0 0 - - -;
#X floatatom 479 429 5 0 0 0 - - -;
#X obj 460 246 delay 10;
#X obj 460 270 metro 10;
#X msg 423 116 0.01;
#X text 524 21 Adapted from Yadegari \, S. 2003 Chaotic signal synthesis
with real-time control: Solving differential equations in pd \, max/msp
\, and jmax. Proceedings of Digital Audio Effects (DAFx-03).;
#X connect 0 0 13 0;
#X connect 0 0 40 0;
#X connect 1 0 14 0;
#X connect 1 0 39 0;
#X connect 2 0 15 0;
#X connect 2 0 38 0;
#X connect 3 0 16 0;
#X connect 3 0 37 0;
#X connect 3 0 42 0;
#X connect 4 0 20 0;
#X connect 5 0 21 0;
#X connect 6 0 22 0;
#X connect 7 0 19 0;
#X connect 8 0 17 0;
#X connect 9 0 18 0;
#X connect 10 0 0 0;
#X connect 10 1 1 0;
#X connect 10 2 2 0;
#X connect 10 3 3 0;
#X connect 11 0 43 0;
#X connect 12 0 44 0;
#X connect 24 0 0 1;
#X connect 24 1 1 1;
#X connect 24 2 2 1;
#X connect 24 3 3 1;
#X connect 24 3 41 0;
#X connect 25 0 0 1;
#X connect 26 0 1 1;
#X connect 27 0 2 1;
#X connect 28 0 17 0;
#X connect 29 0 18 0;
#X connect 30 0 23 0;
#X connect 31 0 25 0;
#X connect 31 0 26 0;
#X connect 31 0 27 0;
#X connect 32 0 8 0;
#X connect 32 0 9 0;
#X connect 32 0 7 0;
#X connect 32 0 4 0;
#X connect 32 0 5 0;
#X connect 32 0 6 0;
#X connect 32 0 45 0;
#X connect 33 0 24 0;
#X connect 34 0 24 1;
#X connect 35 0 24 2;
#X connect 36 0 24 3;
#X connect 43 0 44 0;
#X connect 44 0 10 0;
#X connect 45 0 23 0;
#X restore -19 233 pd chua01-------;
#N canvas 364 269 941 540 chua02------- 0;
#X obj 59 404 f;
#X obj 166 404 f;
#X obj 273 403 f;
#X obj 380 403 f;
#X msg 252 127 -1.14286;
#X msg 312 127 -0.714286;
#X msg 380 127 1;
#X msg 190 127 0;
#X msg 73 127 15.49;
#X msg 134 127 25.96;
#X obj 470 302 t b b b b;
#X obj 470 233 loadbang;
#X obj 531 252 bng 15 250 50 0 empty empty empty 17 7 0 10 -262144
-1 -1;
#X obj 59 427 s \$0-out1;
#X obj 166 427 s \$0-out2;
#X obj 273 427 s \$0-out3;
#X obj 380 427 s \$0-out4;
#X obj 74 218 r \$0-out1;
#X obj 181 218 r \$0-out2;
#X obj 288 218 r \$0-out3;
#X obj 395 218 r \$0-out4;
#X obj 78 449 outlet;
#X obj 180 449 outlet;
#X obj 286 449 outlet;
#X obj 396 449 outlet;
#X obj 99 88 inlet alpha;
#X obj 179 88 inlet beta;
#X obj 449 88 inlet dt;
#X obj 470 256 delay 10;
#X obj 121 332 loadbang;
#X obj 271 44 loadbang;
#X obj 73 180 v alpha02;
#X obj 134 180 v beta02;
#X obj 190 180 v gamma02;
#X obj 252 180 v a02;
#X obj 312 180 v b02;
#X obj 380 180 v k02;
#X obj 433 180 v dt02;
#X obj 74 248 expr $f1 + k02 * (alpha02 * ($f2 - $f1 - $f4)) * dt02
\; $f2 + k02 * ($f1 - $f2 + $f3) * dt02 \; $f3 + k02 * (-beta02 * $f2
- gamma02 * $f3) * dt02 \; if ($f1>=1 \, b02*$f1+(a02-b02) \, if ($f1>=-1
\, a02*$f1 \, b02*$f1-(a02-b02)));
#X msg 95 364 1.16346;
#X msg 199 365 -0.0972335;
#X msg 309 364 -0.905656;
#X floatatom 485 407 10 0 0 0 - - -;
#X floatatom 5 471 5 0 0 0 - - -;
#X floatatom 27 278 5 0 0 0 - - -;
#X obj 470 279 metro 10;
#X msg 435 127 0.001;
#X text 534 32 Adapted from Yadegari \, S. 2003 Chaotic signal synthesis
with real-time control: Solving differential equations in pd \, max/msp
\, and jmax. Proceedings of Digital Audio Effects (DAFx-03).;
#X connect 0 0 13 0;
#X connect 0 0 21 0;
#X connect 0 0 43 0;
#X connect 1 0 14 0;
#X connect 1 0 22 0;
#X connect 2 0 15 0;
#X connect 2 0 23 0;
#X connect 3 0 16 0;
#X connect 3 0 24 0;
#X connect 4 0 34 0;
#X connect 5 0 35 0;
#X connect 6 0 36 0;
#X connect 7 0 33 0;
#X connect 8 0 31 0;
#X connect 9 0 32 0;
#X connect 10 0 0 0;
#X connect 10 1 1 0;
#X connect 10 2 2 0;
#X connect 10 3 3 0;
#X connect 11 0 28 0;
#X connect 12 0 45 0;
#X connect 17 0 44 0;
#X connect 17 0 38 0;
#X connect 18 0 38 1;
#X connect 19 0 38 2;
#X connect 20 0 38 3;
#X connect 25 0 31 0;
#X connect 26 0 32 0;
#X connect 27 0 37 0;
#X connect 28 0 45 0;
#X connect 29 0 39 0;
#X connect 29 0 40 0;
#X connect 29 0 41 0;
#X connect 30 0 8 0;
#X connect 30 0 9 0;
#X connect 30 0 7 0;
#X connect 30 0 4 0;
#X connect 30 0 5 0;
#X connect 30 0 6 0;
#X connect 30 0 46 0;
#X connect 38 0 0 1;
#X connect 38 1 1 1;
#X connect 38 2 2 1;
#X connect 38 2 42 0;
#X connect 38 3 3 1;
#X connect 39 0 0 1;
#X connect 40 0 1 1;
#X connect 41 0 2 1;
#X connect 45 0 10 0;
#X connect 46 0 37 0;
#X restore 173 233 pd chua02-------;
#N canvas 567 306 908 306 scaleOutputs----------------------------
0;
#X obj 4 94 + 2.28;
#X obj 4 114 / 4.56;
#X obj 4 136 clip 0 1;
#X obj 107 136 clip 0 1;
#X obj 107 94 + 0.405;
#X obj 107 114 / 0.81;
#X obj 211 136 clip 0 1;
#X obj 211 94 + 3.61;
#X obj 211 114 / 7.18;
#X obj 315 136 clip 0 1;
#X obj 315 94 + 2.06;
#X obj 444 94 + 2.28;
#X obj 444 114 / 4.56;
#X obj 444 136 clip 0 1;
#X obj 547 136 clip 0 1;
#X obj 547 94 + 0.405;
#X obj 547 114 / 0.81;
#X obj 651 138 clip 0 1;
#X obj 651 94 + 3.61;
#X obj 651 114 / 7.18;
#X obj 755 136 clip 0 1;
#X obj 755 94 + 2.06;
#X obj 107 163 s TSch0102Norm;
#X obj 211 163 s TSch0103Norm;
#X obj 315 163 s TSch0104Norm;
#X obj 444 163 s TSch0201Norm;
#X obj 547 163 s TSch0202Norm;
#X obj 651 163 s TSch0203Norm;
#X obj 755 163 s TSch0204Norm;
#X obj 315 114 / 4.12;
#X obj 755 114 / 4.12;
#X obj 4 57 inlet;
#X obj 107 57 inlet;
#X obj 211 57 inlet;
#X obj 315 57 inlet;
#X obj 444 57 inlet;
#X obj 547 57 inlet;
#X obj 651 57 inlet;
#X obj 755 57 inlet;
#X text 260 31 Normalise outputs of Chua oscillators and send out;
#X obj 4 163 s TSch0101Norm;
#X connect 0 0 1 0;
#X connect 1 0 2 0;
#X connect 2 0 40 0;
#X connect 3 0 22 0;
#X connect 4 0 5 0;
#X connect 5 0 3 0;
#X connect 6 0 23 0;
#X connect 7 0 8 0;
#X connect 8 0 6 0;
#X connect 9 0 24 0;
#X connect 10 0 29 0;
#X connect 11 0 12 0;
#X connect 12 0 13 0;
#X connect 13 0 25 0;
#X connect 14 0 26 0;
#X connect 15 0 16 0;
#X connect 16 0 14 0;
#X connect 17 0 27 0;
#X connect 18 0 19 0;
#X connect 19 0 17 0;
#X connect 20 0 28 0;
#X connect 21 0 30 0;
#X connect 29 0 9 0;
#X connect 30 0 20 0;
#X connect 31 0 0 0;
#X connect 32 0 4 0;
#X connect 33 0 7 0;
#X connect 34 0 10 0;
#X connect 35 0 11 0;
#X connect 36 0 15 0;
#X connect 37 0 18 0;
#X connect 38 0 21 0;
#X restore -19 316 pd scaleOutputs----------------------------;
#X obj 74 181 * 0.01;
#X obj 74 201 + 0.01;
#X obj 27 135 pipe 150;
#X obj 27 156 + 25;
#X obj 219 139 pipe 500;
#X obj 27 113 r TSch0202Norm;
#X obj 74 156 r TSch0201Norm;
#X obj 219 113 r TSch0103Norm;
#X text 49 89 Modulate oscs with each other;
#X text -103 16 modulate alpha value with accelerometer input;
#X obj 386 64 adc~;
#X obj 451 114 route 1;
#X obj 451 134 unpack;
#X obj 484 157 + 15;
#X obj 386 114 route 2;
#X obj 386 136 unpack;
#X obj 386 160 + 15;
#X obj 386 84 fiddle~ 1024 1 20 3;
#X obj 219 163 + 25;
#X connect 0 0 2 0;
#X connect 0 1 2 1;
#X connect 0 2 2 2;
#X connect 0 3 2 3;
#X connect 1 0 2 4;
#X connect 1 1 2 5;
#X connect 1 2 2 6;
#X connect 1 3 2 7;
#X connect 3 0 4 0;
#X connect 4 0 0 2;
#X connect 5 0 6 0;
#X connect 6 0 0 1;
#X connect 7 0 21 0;
#X connect 8 0 5 0;
#X connect 9 0 3 0;
#X connect 10 0 7 0;
#X connect 13 0 20 0;
#X connect 14 0 15 0;
#X connect 15 1 16 0;
#X connect 16 0 1 0;
#X connect 17 0 18 0;
#X connect 18 1 19 0;
#X connect 19 0 0 0;
#X connect 20 4 14 0;
#X connect 20 4 17 0;
#X connect 21 0 1 1;
#X restore 160 15 pd chuaOscillators;
#X obj 160 359 *~ 0.6;
#X obj 250 359 *~ 0.6;
#X obj 159 407 outlet~;
#X obj 249 407 outlet~;
#X obj 402 39 inlet;
#X obj 402 65 switch~;
#X connect 0 0 1 0;
#X connect 0 1 2 0;
#X connect 1 0 4 0;
#X connect 2 0 3 0;
#X connect 3 0 9 0;
#X connect 3 0 8 0;
#X connect 4 0 7 0;
#X connect 4 0 9 0;
#X connect 5 0 3 1;
#X connect 5 1 3 2;
#X connect 6 0 4 1;
#X connect 6 1 4 2;
#X connect 7 0 11 0;
#X connect 7 1 12 0;
#X connect 8 0 11 0;
#X connect 8 1 12 0;
#X connect 9 0 11 0;
#X connect 9 1 12 0;
#X connect 11 0 13 0;
#X connect 12 0 14 0;
#X connect 15 0 16 0;
